<?xml version="1.0" encoding="UTF-8" standalone="no"?>
<!-- Created with Inkscape (http://www.inkscape.org/) -->

<svg
   width="39mm"
   height="39mm"
   viewBox="0 0 39 39"
   version="1.1"
   id="svg5"
   xml:space="preserve"
   inkscape:version="1.2.2 (b0a8486541, 2022-12-01)"
   sodipodi:docname="DOF_qr.svg"
   xmlns:inkscape="http://www.inkscape.org/namespaces/inkscape"
   xmlns:sodipodi="http://sodipodi.sourceforge.net/DTD/sodipodi-0.dtd"
   xmlns="http://www.w3.org/2000/svg"
   xmlns:svg="http://www.w3.org/2000/svg"><sodipodi:namedview
     id="namedview7"
     pagecolor="#ffffff"
     bordercolor="#000000"
     borderopacity="0.25"
     inkscape:showpageshadow="2"
     inkscape:pageopacity="0.0"
     inkscape:pagecheckerboard="0"
     inkscape:deskcolor="#d1d1d1"
     inkscape:document-units="mm"
     showgrid="false"
     inkscape:zoom="2.8284271"
     inkscape:cx="48.967145"
     inkscape:cy="27.577165"
     inkscape:window-width="1920"
     inkscape:window-height="1008"
     inkscape:window-x="0"
     inkscape:window-y="0"
     inkscape:window-maximized="1"
     inkscape:current-layer="layer1" /><defs
     id="defs2" /><g
     inkscape:label="Layer 1"
     inkscape:groupmode="layer"
     id="layer1"><path
       style="fill:#000000;stroke-width:0.0842697"
       d="m 14.743755,31.511734 c -0.101286,-0.07406 -0.142555,-0.256843 -0.155664,-0.689437 -0.01779,-0.587145 -0.01849,-0.588728 -0.270646,-0.616209 -0.139045,-0.01515 -0.284672,-0.05839 -0.323615,-0.09609 -0.03894,-0.03769 -0.07002,-0.457524 -0.06906,-0.932955 0.0019,-0.931802 0.03475,-1.004379 0.455879,-1.006724 l 0.231742,-0.0013 v -0.674158 -0.674158 h -0.235955 c -0.299447,0 -0.438203,-0.138756 -0.438203,-0.438202 0,-0.235724 -5.73e-4,-0.235956 -0.583869,-0.235956 -0.41843,0 -0.62139,-0.03752 -0.716292,-0.132424 -0.160204,-0.160203 -0.163659,-0.213994 -0.02586,-0.402452 0.0808,-0.110502 0.2489,-0.150054 0.695226,-0.163579 0.58745,-0.0178 0.58871,-0.01835 0.614967,-0.270646 0.03023,-0.290497 0.215137,-0.463484 0.495414,-0.463484 0.166183,0 0.194568,-0.04303 0.194568,-0.294944 0,-0.241893 -0.03131,-0.294944 -0.17408,-0.294944 -0.280968,0 -0.500078,-0.160067 -0.500078,-0.365324 0,-0.293803 0.16239,-0.393103 0.642858,-0.393103 0.640936,0 0.705458,0.09634 0.705458,1.053371 0,0.861018 -0.08573,1.053372 -0.469503,1.053372 -0.182265,0 -0.204655,0.03654 -0.204655,0.333954 v 0.333955 l 0.551323,-0.0042 c 0.570514,-0.0044 0.796992,0.09253 0.796992,0.341022 0,0.209119 -0.171519,0.343615 -0.438202,0.343615 h -0.235955 v 1.008477 1.008477 l 0.939047,0.02383 c 0.786271,0.01995 0.954148,0.04782 1.031872,0.171299 0.06751,0.107253 0.06755,0.187692 1.69e-4,0.294944 -0.07138,0.113588 -0.231015,0.153161 -0.694795,0.172232 l -0.602136,0.02476 v 0.537169 c 0,0.716501 -0.04215,0.803763 -0.388229,0.803763 -0.255429,0 -0.286066,0.02472 -0.287219,0.231741 -0.0022,0.392257 -0.280479,0.605194 -0.541501,0.41433 z m 1.364421,0.02134 c -0.367673,-0.214149 -0.01756,-0.784209 0.358147,-0.583138 0.217339,0.116317 0.220694,0.471776 0.0055,0.586924 -0.193991,0.103821 -0.178663,0.10398 -0.363686,-0.0038 z m 2.127811,0.0296 c -0.179486,-0.06832 -0.250035,-0.198828 -0.251519,-0.465263 -0.0012,-0.208179 -0.03112,-0.231741 -0.294629,-0.231741 -0.247198,0 -0.302174,-0.0352 -0.349505,-0.223786 -0.06469,-0.257728 0.127061,-0.450372 0.448276,-0.450372 0.149833,0 0.194568,-0.04705 0.194568,-0.204655 0,-0.261809 0.207693,-0.469503 0.469502,-0.469503 0.150647,0 0.204655,-0.04594 0.204655,-0.174079 0,-0.313001 0.158734,-0.500079 0.424313,-0.500079 h 0.249845 v -0.674157 -0.674158 h -0.254616 c -0.188999,0 -0.27906,-0.05365 -0.349468,-0.208179 -0.154526,-0.339149 0.02336,-0.465979 0.653572,-0.465979 0.568023,0 0.708939,0.0994 0.708939,0.500079 0,0.136782 0.05353,0.174079 0.249845,0.174079 0.303759,0 0.424313,0.19154 0.424313,0.674158 0,0.482617 -0.120554,0.674157 -0.424313,0.674157 H 20.08992 v 0.531647 c 0,0.60829 -0.103993,0.795081 -0.463483,0.832493 -0.252291,0.02626 -0.252845,0.02752 -0.270647,0.614968 -0.01352,0.446325 -0.05308,0.614424 -0.163578,0.695225 -0.146774,0.107324 -0.721591,0.134462 -0.956225,0.04515 z m 1.936292,-0.109028 c -0.114052,-0.114051 -0.166628,-0.280366 -0.166628,-0.527091 0,-0.438326 0.189024,-0.735043 0.468261,-0.735043 0.141125,0 0.205896,-0.04712 0.205896,-0.149789 0,-0.200179 0.233681,-0.524369 0.377974,-0.524369 0.181849,0 0.380454,0.24509 0.380454,0.469503 0,0.182585 0.03635,0.204655 0.337079,0.204655 0.313002,0 0.337079,-0.01685 0.337079,-0.235955 0,-0.129776 0.0455,-0.281461 0.101123,-0.337079 0.05562,-0.05562 0.207304,-0.101124 0.337079,-0.101124 0.235555,0 0.235955,-9.86e-4 0.235955,-0.57957 0,-0.397015 0.03758,-0.610754 0.119295,-0.678575 0.186746,-0.154986 1.064562,-0.08087 1.177732,0.09944 0.134809,0.214782 -0.03439,0.436672 -0.357491,0.468822 -0.248244,0.0247 -0.265378,0.04783 -0.265378,0.358147 v 0.331739 h 1.011237 1.011236 v -0.337079 c 0,-0.313002 -0.01685,-0.337079 -0.235955,-0.337079 -0.357754,0 -0.438203,-0.141654 -0.438203,-0.771589 v -0.569342 l -0.602126,-0.02476 c -0.46378,-0.01907 -0.623419,-0.05864 -0.694795,-0.172231 -0.06738,-0.107224 -0.06738,-0.18772 0,-0.294944 0.07138,-0.113588 0.231015,-0.153161 0.694795,-0.172231 l 0.602126,-0.02476 V 26.479955 26.146568 H 24.23599 c -0.612565,0 -0.775281,-0.08208 -0.775281,-0.391094 0,-0.261561 0.08695,-0.295084 0.75989,-0.292957 0.583367,0.0018 0.588436,-8.5e-5 0.589716,-0.225865 0.0034,-0.601855 0.626641,-0.655416 0.688691,-0.05918 l 0.02631,0.252809 h 1.348315 1.348316 l 0.01784,-0.588657 c 0.02287,-0.754758 0.08421,-0.801794 1.045621,-0.801794 0.797554,0 1.00115,0.09246 1.00115,0.454641 0,0.149258 0.06749,0.206465 0.316011,0.267857 l 0.316012,0.07806 v 0.917782 c 0,0.782462 -0.02174,0.931499 -0.147472,1.010806 -0.214644,0.135394 -0.436647,-0.03367 -0.468823,-0.35703 -0.02255,-0.226576 -0.06013,-0.265378 -0.257023,-0.265378 -0.294308,0 -0.432863,-0.140263 -0.432863,-0.438202 0,-0.219101 -0.02408,-0.235955 -0.337079,-0.235955 h -0.337079 v 1.016324 1.016323 l 0.316012,-0.02615 c 0.29042,-0.02404 0.319423,-0.05004 0.358146,-0.321099 0.03261,-0.228283 0.08604,-0.301167 0.23638,-0.32248 0.265496,-0.03764 0.437778,0.126495 0.437778,0.417068 0,0.209406 0.03219,0.242491 0.235955,0.242491 0.382456,0 0.438203,0.128647 0.438203,1.011237 0,0.855619 -0.05956,1.011236 -0.387052,1.011236 -0.198491,0 -0.287106,-0.145181 -0.287106,-0.470376 0,-0.16701 -0.04258,-0.203782 -0.235955,-0.203782 -0.299447,0 -0.438203,-0.138756 -0.438203,-0.438202 v -0.235969 h -0.67416 -0.674157 v 0.511158 c 0,0.611683 -0.102135,0.837157 -0.379214,0.837157 -0.21973,0 -0.379214,-0.211805 -0.379214,-0.503623 0,-0.16749 -0.03726,-0.17622 -0.65309,-0.153012 l -0.65309,0.02461 -0.02615,0.316012 c -0.02478,0.299395 -0.01314,0.316011 0.221424,0.316011 0.295259,0 0.459997,0.170835 0.422155,0.437778 -0.02131,0.150344 -0.0942,0.203768 -0.32248,0.23638 l -0.294944,0.04213 -0.01784,0.588657 c -0.02287,0.754757 -0.08421,0.801793 -1.045621,0.801793 -0.780149,0 -1.001149,-0.09369 -1.001149,-0.424402 0,-0.231618 0.256661,-0.334025 0.837157,-0.334025 h 0.511158 v -0.331321 -0.33132 l -1.348315,-0.0069 -1.348316,-0.0069 -0.0013,0.569973 c -0.0014,0.602448 -0.03993,0.719453 -0.264395,0.802074 -0.200882,0.07394 -0.393871,-0.108287 -0.424297,-0.40064 l -0.02631,-0.252809 -0.653091,-0.01978 c -0.608703,-0.01844 -0.65309,-0.008 -0.65309,0.153012 0,0.440976 -0.331976,0.672435 -0.591799,0.412612 z m 7.333376,-4.295844 v -1.011237 h -1.005049 -1.005051 l -0.0063,1.011237 -0.0063,1.011237 h 1.011356 1.011356 v -1.011237 z m -1.278241,0.1289 c -0.12389,-0.271908 0.03905,-0.484628 0.344061,-0.449172 0.170252,0.01979 0.223969,0.0786 0.245704,0.268993 0.04652,0.407511 -0.421095,0.550371 -0.589765,0.180179 z m 3.532456,4.246375 c -0.273915,-0.159541 -0.106366,-0.667407 0.220183,-0.667407 0.08804,0 0.306503,0.270288 0.306503,0.379213 0,0.119713 -0.223455,0.381069 -0.322031,0.376652 -0.03145,-0.0014 -0.123545,-0.04122 -0.204655,-0.08846 z M 9.2157583,31.345769 c -0.250814,-0.132634 -0.428373,-0.310192 -0.561007,-0.561007 -0.17636,-0.333502 -0.194051,-0.476647 -0.194051,-1.570127 0,-1.290641 0.0533,-1.542912 0.405642,-1.919747 0.381589,-0.40812 0.653767,-0.474172 1.9539097,-0.474172 1.300142,0 1.57232,0.06605 1.95391,0.474172 0.351082,0.375493 0.405642,0.629081 0.405642,1.88538 0,1.257008 -0.05491,1.511829 -0.405642,1.882525 -0.412597,0.436079 -0.578824,0.477027 -1.936471,0.477027 -1.1475557,0 -1.2863857,-0.01661 -1.6219327,-0.194051 z m 3.0033707,-0.766623 0.286517,-0.286517 v -1.112361 -1.11236 l -0.286517,-0.286517 -0.286517,-0.286517 h -1.11236 -1.1123597 l -0.286517,0.286517 -0.286517,0.286517 v 1.11236 1.112361 l 0.286517,0.286517 0.286517,0.286517 h 1.1123597 1.11236 z m -2.2415737,-0.55618 c -0.138758,-0.138758 -0.16854,-0.280899 -0.16854,-0.804393 0,-0.562744 0.02378,-0.659636 0.2068437,-0.842697 0.183061,-0.183062 0.279953,-0.206844 0.842697,-0.206844 0.87563,0 0.972932,0.101133 0.972932,1.011236 0,0.918716 -0.09252,1.011237 -1.011236,1.011237 -0.561798,0 -0.702248,-0.02809 -0.8426967,-0.168539 z m 18.6657407,0.85728 c -0.139045,-0.01515 -0.283958,-0.05768 -0.32203,-0.0945 -0.106715,-0.103214 -0.08189,-1.010686 0.03139,-1.147171 0.141867,-0.17094 0.953244,-0.162879 1.127322,0.0112 0.16299,0.16299 0.183069,0.986329 0.02709,1.110716 -0.128334,0.10234 -0.52234,0.156968 -0.863765,0.119759 z m -1.73128,-0.190133 c -0.07495,-0.140048 -0.06439,-0.208215 0.05223,-0.337079 0.0804,-0.08884 0.19131,-0.161529 0.246465,-0.161529 0.05516,0 0.166066,0.07269 0.246466,0.161529 0.193022,0.213288 0.0491,0.512629 -0.246466,0.512629 -0.121223,0 -0.24307,-0.07161 -0.298695,-0.17555 z m -5.4176,-1.228946 c -0.09156,-0.09156 -0.06406,-0.40785 0.04494,-0.516854 0.272472,-0.272472 0.736842,0.147715 0.490836,0.444134 -0.108696,0.130971 -0.43345,0.17505 -0.535779,0.07272 z M 17.410143,28.067908 C 17.351323,28.009088 17.30902,27.727084 17.30902,27.39375 v -0.573034 h -0.242491 c -0.308194,0 -0.466639,-0.186265 -0.396423,-0.46603 0.05251,-0.209227 0.07153,-0.214701 0.662501,-0.190701 l 0.608436,0.02471 0.02461,0.653091 c 0.02353,0.624467 0.03339,0.65309 0.224851,0.65309 0.342083,0 0.46683,0.09007 0.46683,0.337079 0,0.136348 -0.05588,0.256222 -0.133297,0.285928 -0.233736,0.08969 -1.00901,0.05491 -1.113895,-0.04997 z m 4.78988,-0.02123 c -0.223859,-0.269733 0.104935,-0.684082 0.396921,-0.500203 0.29177,0.183743 0.187823,0.62256 -0.147472,0.62256 -0.08135,0 -0.193598,-0.05506 -0.249449,-0.122357 z m -1.337356,-0.625441 c -0.06366,-0.04036 -0.100068,-0.176322 -0.08427,-0.314721 0.02364,-0.207049 0.07214,-0.249997 0.32276,-0.2858 0.261852,-0.03741 0.299672,-0.07509 0.337079,-0.335849 0.0373,-0.260048 0.07594,-0.29886 0.337079,-0.338597 0.676907,-0.103006 1.171779,0.14688 0.960172,0.484839 -0.05079,0.08111 -0.211758,0.159355 -0.357715,0.173879 -0.200512,0.01995 -0.265378,0.06765 -0.265378,0.195147 0,0.384571 -0.146571,0.494814 -0.656055,0.493449 -0.264873,-6.74e-4 -0.532025,-0.03327 -0.593672,-0.07235 z m -0.724592,-0.732945 c -0.152167,-0.152166 -0.180013,-0.800973 -0.04519,-1.052892 0.0495,-0.09249 0.175801,-0.162999 0.291979,-0.162999 0.260137,0 0.379214,0.221294 0.379214,0.704733 0,0.383287 -0.153372,0.643582 -0.379214,0.643582 -0.0629,0 -0.173957,-0.05959 -0.246789,-0.132424 z M 8.5618233,26.045435 c -0.0692,-0.0692 -0.101123,-0.480615 -0.101123,-1.303216 0,-1.102227 0.01354,-1.209339 0.162999,-1.289327 0.08965,-0.04798 0.243625,-0.08723 0.342166,-0.08723 0.155507,0 0.175713,-0.04173 0.153012,-0.316012 -0.02404,-0.29042 -0.05004,-0.319423 -0.321098,-0.358146 -0.228284,-0.03261 -0.301168,-0.08604 -0.322481,-0.23638 -0.04569,-0.322279 0.126601,-0.437778 0.653024,-0.437778 0.535661,0 0.680693,0.09337 0.680693,0.438203 0,0.202247 0.03371,0.235955 0.2359547,0.235955 0.389881,0 0.438203,0.122664 0.438203,1.11236 v 0.910113 h 0.511158 c 0.611683,0 0.837157,0.102135 0.837157,0.379214 0,0.218765 -0.211587,0.379214 -0.500078,0.379214 -0.135596,0 -0.174079,0.05361 -0.174079,0.242491 0,0.3341 -0.19471,0.485191 -0.465979,0.361593 -0.15453,-0.07041 -0.208179,-0.160469 -0.208179,-0.349468 0,-0.201138 -0.03656,-0.254616 -0.17408,-0.254616 -0.4102657,0 -0.5000777,-0.136742 -0.5000777,-0.761392 v -0.586928 h -0.337079 -0.337078 v 0.924002 c 0,0.827287 -0.01706,0.933133 -0.163,1.011237 -0.210193,0.112492 -0.286229,0.109916 -0.410035,-0.01389 z m 7.4892567,-0.01792 c -0.05942,-0.0716 -0.08872,-0.331904 -0.07352,-0.65309 l 0.02528,-0.534043 0.319275,-0.07886 0.319274,-0.07886 -0.02433,-0.63743 -0.02433,-0.637431 -0.294944,-0.04214 c -0.228283,-0.03261 -0.301167,-0.08604 -0.32248,-0.23638 -0.03749,-0.264429 0.126202,-0.437778 0.413377,-0.437778 0.237628,0 0.23892,-0.0029 0.263558,-0.602127 0.01907,-0.46378 0.05864,-0.623419 0.172231,-0.694794 0.107224,-0.06738 0.18772,-0.06738 0.294944,0 0.113588,0.07137 0.153161,0.231014 0.172231,0.694794 0.02464,0.599175 0.02593,0.602127 0.263558,0.602127 0.287175,0 0.450862,0.173349 0.413377,0.437778 -0.02131,0.150344 -0.0942,0.203768 -0.32248,0.23638 l -0.294944,0.04214 -0.02461,0.65309 -0.02461,0.65309 h 0.872271 c 1.093185,0 1.169331,0.04582 1.169331,0.703676 0,0.486015 -0.103729,0.728909 -0.311282,0.728909 -0.176941,0 -0.374915,-0.247921 -0.374915,-0.469502 v -0.204655 h -1.011236 -1.011237 v 0.249844 c 0,0.355615 -0.377966,0.553259 -0.583782,0.305266 z m 4.759911,-0.742401 c -0.07215,-0.103008 -0.131183,-0.249954 -0.131183,-0.326545 0,-0.08674 -0.09361,-0.157976 -0.248226,-0.1889 -0.355575,-0.07111 -0.479745,-0.338957 -0.259323,-0.559379 0.136468,-0.136468 0.280743,-0.170471 0.723311,-0.170471 h 0.55284 l -0.02615,-0.316011 -0.02615,-0.316011 -0.588657,-0.01784 c -0.696119,-0.02109 -0.801793,-0.114478 -0.801793,-0.708542 0,-0.403932 0.14855,-0.664071 0.379213,-0.664071 0.18075,0 0.379214,0.245718 0.379214,0.469503 0,0.182585 0.03635,0.204655 0.337079,0.204655 0.313002,0 0.337079,-0.01685 0.337079,-0.235955 0,-0.297939 0.138554,-0.438203 0.432863,-0.438203 0.196897,0 0.234477,-0.0388 0.257023,-0.265378 0.05339,-0.536501 0.589316,-0.536501 0.642701,0 l 0.02641,0.265378 h 1.248388 c 1.343566,0 1.479113,0.0417 1.422965,0.437778 -0.02549,0.179833 -0.07317,0.196088 -0.642584,0.219087 -0.387444,0.01565 -0.626522,0.06243 -0.646052,0.126405 -0.01705,0.05586 -0.05443,0.208152 -0.08307,0.338428 -0.0456,0.207472 -0.08569,0.233615 -0.32305,0.210674 -0.238812,-0.02308 -0.275987,-0.06121 -0.31312,-0.321135 -0.03872,-0.27106 -0.06773,-0.297062 -0.358146,-0.321099 l -0.316012,-0.02615 v 0.545948 c 0,0.704469 -0.04154,0.796888 -0.38735,0.861763 -0.228238,0.04282 -0.286807,0.09368 -0.286807,0.249081 0,0.253308 -0.211033,0.460125 -0.469503,0.460125 -0.160514,0 -0.204655,0.04414 -0.204655,0.204655 0,0.224413 -0.198605,0.469503 -0.380454,0.469503 -0.06358,0 -0.17464,-0.08428 -0.246791,-0.187291 z m 1.448875,0.09627 c -0.197994,-0.115321 -0.188475,-0.470994 0.01553,-0.580173 0.180302,-0.09649 0.618027,-0.112749 0.912361,-0.03388 0.260829,0.06989 0.350221,0.440161 0.14287,0.591779 -0.181152,0.132461 -0.857424,0.146529 -1.070758,0.02227 z M 12.084297,24.73682 c -0.269948,-0.102761 -0.324828,-0.360137 -0.120385,-0.564581 0.149412,-0.149412 0.799354,-0.180879 1.042978,-0.0505 0.437599,0.234197 0.145619,0.680688 -0.438042,0.669846 -0.19698,-0.0037 -0.415028,-0.02831 -0.484551,-0.05477 z m 11.523884,-0.0296 c -0.367673,-0.214149 -0.01756,-0.78421 0.358146,-0.583138 0.217339,0.116317 0.220694,0.471776 0.0055,0.586924 -0.193992,0.103821 -0.178664,0.10398 -0.363686,-0.0038 z m 3.374907,-0.07647 c -0.209903,-0.172316 -0.163407,-0.361928 0.133197,-0.543176 0.117194,-0.07161 0.180081,-0.04974 0.309157,0.107531 0.29253,0.35643 -0.08543,0.728656 -0.442354,0.435645 z m -8.834251,-0.660599 c -0.134888,-0.109225 -0.171128,-0.201708 -0.129919,-0.331545 0.122917,-0.387276 0.638417,-0.295539 0.638417,0.113611 0,0.290863 -0.273615,0.408131 -0.508498,0.217934 z m 8.170455,-0.003 c -0.221562,-0.17941 -0.16281,-0.478853 0.111004,-0.565759 0.242589,-0.077 0.520773,0.246458 0.40232,0.467789 -0.121777,0.227541 -0.309148,0.263301 -0.513324,0.09797 z m -2.131533,-0.0561 c -0.09124,-0.237757 -0.0586,-0.367873 0.115647,-0.46113 0.257738,-0.137936 0.522596,0.03608 0.489601,0.32168 -0.02133,0.184626 -0.07436,0.230768 -0.289237,0.251678 -0.182563,0.01777 -0.279314,-0.01659 -0.316011,-0.112229 z m 6.1358,0.01937 c -0.02536,-0.06609 -0.03458,-0.339513 -0.02049,-0.607615 0.02865,-0.545183 0.195331,-0.751578 0.468036,-0.57956 0.117183,0.07392 0.147472,0.212293 0.147472,0.673727 v 0.580703 l -0.274457,0.02645 c -0.179153,0.01726 -0.290465,-0.01527 -0.320563,-0.0937 z m -3.028578,-0.548945 c -0.229986,-0.02394 -0.463483,-0.206805 -0.463483,-0.36299 0,-0.03418 0.05959,-0.121735 0.132424,-0.194568 0.0949,-0.0949 0.297862,-0.132424 0.716292,-0.132424 0.583296,0 0.583869,-2.53e-4 0.583869,-0.235955 0,-0.129776 0.0455,-0.281461 0.101123,-0.337079 0.05562,-0.05562 0.207304,-0.101124 0.337079,-0.101124 0.202248,0 0.235955,-0.03371 0.235955,-0.235955 0,-0.299447 0.138756,-0.438203 0.438203,-0.438203 0.203762,0 0.235955,-0.03308 0.235955,-0.242491 0,-0.34886 0.165983,-0.444333 0.721528,-0.415016 0.349024,0.01842 0.508604,0.06638 0.575499,0.172957 0.134809,0.214782 -0.03439,0.436672 -0.357491,0.468822 l -0.265378,0.02641 v 0.567695 c 0,0.329181 -0.04249,0.610181 -0.101124,0.668818 -0.05882,0.05882 -0.340824,0.101124 -0.674157,0.101124 H 28.93824 v 0.242491 c 0,0.13337 -0.05136,0.285114 -0.114129,0.337209 -0.113113,0.09388 -1.04263,0.160914 -1.52913,0.110282 z M 12.593183,23.203223 c -0.200676,-0.374967 0.249525,-0.676338 0.516964,-0.346063 0.114999,0.142017 0.130766,0.225774 0.06547,0.347784 -0.112193,0.209634 -0.469885,0.208577 -0.582433,-0.0017 z m 6.155314,0.04434 c -0.137008,-0.165085 -0.04365,-0.448764 0.170002,-0.516575 0.230952,-0.0733 0.426737,0.111842 0.396187,0.374652 -0.01899,0.163378 -0.07984,0.224224 -0.243216,0.243216 -0.119837,0.01393 -0.265175,-0.03165 -0.322973,-0.101293 z m 6.825847,0 c -0.137008,-0.165085 -0.04365,-0.448764 0.170002,-0.516575 0.230952,-0.0733 0.426737,0.111842 0.396187,0.374652 -0.01899,0.163378 -0.07984,0.224224 -0.243216,0.243216 -0.119837,0.01393 -0.265175,-0.03165 -0.322973,-0.101293 z M 14.27531,22.692527 c -0.250324,-0.03663 -0.299152,-0.08002 -0.322759,-0.286827 -0.0317,-0.277661 0.08864,-0.38519 0.433183,-0.387068 0.221952,-0.0012 0.235186,-0.02114 0.210674,-0.317301 -0.02473,-0.298851 -0.04331,-0.317432 -0.342165,-0.342167 -0.283608,-0.02347 -0.316012,-0.0057 -0.316012,0.173502 0,0.373914 -0.164376,0.477179 -0.800562,0.502932 l -0.589888,0.02388 -0.04214,0.294944 c -0.03261,0.228283 -0.08604,0.301167 -0.23638,0.32248 -0.375424,0.05322 -0.437778,-0.102206 -0.437778,-1.091225 v -0.91665 h -0.674152 -0.674158 v 0.242491 c 0,0.34886 -0.165983,0.444333 -0.7215267,0.415016 -0.349024,-0.01842 -0.508605,-0.06638 -0.5755,-0.172956 -0.134809,-0.214783 0.03439,-0.436673 0.357491,-0.468823 l 0.265378,-0.02641 V 20.09065 c 0,-0.628206 0.08067,-0.769942 0.4382027,-0.769942 0.203761,0 0.235955,-0.03309 0.235955,-0.242491 0,-0.133369 0.05455,-0.287763 0.121224,-0.343097 0.141705,-0.117606 1.044607,-0.136222 1.156973,-0.02386 0.04221,0.04221 0.08474,0.338813 0.0945,0.659109 l 0.01775,0.582358 0.609956,0.02474 c 0.495538,0.0201 0.625894,0.05452 0.694923,0.183502 0.119424,0.223147 0.02141,0.416809 -0.239735,0.473682 -0.426067,0.09279 -0.444589,0.110183 -0.417436,0.391936 0.02416,0.250699 0.05381,0.276721 0.342461,0.300611 0.283608,0.02347 0.316012,0.0057 0.316012,-0.173501 0,-0.285121 0.17129,-0.470092 0.463483,-0.500501 l 0.252809,-0.02631 0.01978,-0.653091 0.01978,-0.65309 h -0.582584 c -0.417262,0 -0.620163,-0.03758 -0.715008,-0.132424 -0.156665,-0.156665 -0.158009,-0.167928 -0.04519,-0.378734 0.05613,-0.104886 0.176311,-0.163 0.337079,-0.163 0.196314,0 0.249844,-0.0373 0.249844,-0.174079 0,-0.288491 0.160448,-0.500078 0.379213,-0.500078 0.220147,0 0.379214,0.211899 0.379214,0.505165 0,0.155507 0.04173,0.175713 0.316012,0.153012 l 0.316011,-0.02615 v -1.348316 -1.348315 l -0.588657,-0.01784 c -0.62129,-0.01883 -0.84343,-0.148923 -0.73895,-0.432769 0.07069,-0.192038 0.193199,-0.262882 0.457223,-0.264396 l 0.225122,-0.0013 -0.0027,-1.271589 c -0.0015,-0.70589 0.03338,-1.307657 0.07838,-1.352662 0.04459,-0.04459 0.319767,-0.06964 0.611504,-0.05566 0.394631,0.01891 0.55414,0.06317 0.623033,0.172885 0.134858,0.21477 -0.03433,0.43667 -0.357452,0.468822 -0.248244,0.0247 -0.265378,0.04783 -0.265378,0.358147 0,0.307154 0.01749,0.331739 0.235955,0.331739 0.299447,0 0.438203,0.138756 0.438203,0.438203 0,0.219101 0.02408,0.235955 0.337078,0.235955 0.313003,0 0.337079,-0.01685 0.337079,-0.235955 0,-0.297939 0.138555,-0.438203 0.432864,-0.438203 0.196897,0 0.234477,-0.0388 0.257022,-0.265378 0.03216,-0.323161 0.254073,-0.492328 0.468823,-0.357385 0.113588,0.07138 0.153161,0.231015 0.172231,0.694794 0.02447,0.595025 0.0275,0.602127 0.257023,0.602127 0.295894,0 0.434511,0.139795 0.434511,0.438203 v 0.235955 h 0.674157 0.674158 v -0.337063 -0.337079 h -0.573034 c -0.333334,0 -0.615334,-0.0423 -0.674158,-0.101124 -0.05882,-0.05882 -0.101123,-0.340824 -0.101123,-0.674157 0,-0.571429 -6.75e-4,-0.573034 -0.235956,-0.573034 -0.299446,0 -0.438202,-0.138756 -0.438202,-0.438203 0,-0.218468 -0.02459,-0.235955 -0.33174,-0.235955 -0.310321,0 -0.333444,0.01713 -0.358146,0.265378 -0.05338,0.536502 -0.589317,0.536502 -0.642702,0 -0.02255,-0.226577 -0.06013,-0.265378 -0.257022,-0.265378 -0.282408,0 -0.432863,-0.138586 -0.432863,-0.398713 0,-0.243985 0.09471,-0.28112 0.768751,-0.301405 l 0.537429,-0.01618 0.02474,-0.609955 c 0.02044,-0.504039 0.05337,-0.625277 0.189607,-0.69819 0.114851,-0.06147 0.214885,-0.06147 0.329736,0 0.136239,0.07291 0.169164,0.194151 0.189607,0.69819 l 0.02474,0.609955 0.316011,0.02615 0.316012,0.02615 0.0013,-0.573908 c 6.74e-4,-0.315648 0.02915,-0.614594 0.0632,-0.664323 0.105824,-0.154545 0.334156,-0.197572 0.480519,-0.09055 0.113958,0.08333 0.142953,0.274541 0.155663,1.026516 l 0.01562,0.924113 0.294944,0.04214 c 0.250622,0.0358 0.299124,0.07875 0.32276,0.2858 0.03157,0.276514 -0.08862,0.385177 -0.428097,0.387067 -0.21397,0.0012 -0.231742,0.02714 -0.231742,0.33837 v 0.337078 h 0.337079 c 0.29593,0 0.337079,-0.02375 0.337079,-0.194567 0,-0.293684 0.188481,-0.500062 0.42607,-0.466526 0.158723,0.0224 0.223855,0.101539 0.284018,0.345082 0.06693,0.270952 0.111569,0.316011 0.313046,0.316011 0.293728,0 0.45859,0.256342 0.325181,0.505619 -0.05906,0.110359 -0.176445,0.168539 -0.340043,0.168539 -0.235306,0 -0.249845,0.01962 -0.249845,0.337079 0,0.300727 0.02207,0.337079 0.204655,0.337079 0.179498,0 0.469503,0.189323 0.469503,0.306503 0,0.187298 -0.208151,0.367655 -0.424313,0.367655 -0.204806,0 -0.249845,0.03507 -0.249845,0.194567 0,0.425407 -0.143896,0.489263 -1.140494,0.506106 l -0.924114,0.01562 -0.02631,0.252809 c -0.03366,0.323416 -0.219918,0.463484 -0.616333,0.463484 -0.489401,0 -0.747807,-0.129293 -0.747807,-0.374163 0,-0.223989 0.208582,-0.384265 0.500078,-0.384265 0.16142,0 0.17408,-0.04903 0.17408,-0.674157 v -0.674158 h -0.337079 -0.337079 l -0.0013,0.568821 c -0.0015,0.679561 -0.06353,0.802108 -0.387068,0.765175 -0.20705,-0.02364 -0.249998,-0.07214 -0.285801,-0.322759 -0.03872,-0.27106 -0.06773,-0.297063 -0.358146,-0.321099 l -0.316011,-0.02615 v 0.679244 c 0,0.663021 0.0049,0.679245 0.204655,0.679245 0.223785,0 0.469502,0.198465 0.469502,0.379214 0,0.180749 -0.245717,0.379214 -0.469502,0.379214 -0.199767,0 -0.204655,0.01622 -0.204655,0.679245 v 0.679244 l 0.316011,-0.02615 0.316011,-0.02615 0.04214,-0.632023 c 0.04153,-0.622997 0.04561,-0.632419 0.2858,-0.659838 0.138399,-0.0158 0.274363,0.02061 0.314722,0.08427 0.112686,0.177755 0.08965,1.705628 -0.02749,1.822761 -0.05562,0.05562 -0.204901,0.101124 -0.331739,0.101124 -0.196897,0 -0.234477,0.0388 -0.257023,0.265378 -0.05339,0.536501 -0.589316,0.536501 -0.642701,0 -0.0247,-0.248244 -0.04782,-0.265378 -0.358146,-0.265378 -0.33085,0 -0.33174,9.04e-4 -0.33174,0.337079 0,0.313002 0.01685,0.337079 0.235955,0.337079 0.297939,0 0.438203,0.138554 0.438203,0.432863 0,0.196897 0.0388,0.234477 0.265378,0.257023 0.536501,0.05338 0.536501,0.589316 0,0.642701 -0.228536,0.02274 -0.265378,0.05933 -0.265378,0.263558 0,0.130433 -0.0474,0.274953 -0.105338,0.321153 -0.140549,0.11208 -0.543178,0.159282 -0.905899,0.106202 z m -3.704508,-0.797541 c -0.223693,-0.269534 0.104744,-0.683786 0.396922,-0.50063 0.184986,0.115962 0.241422,0.454025 0.09164,0.548964 -0.170857,0.108299 -0.375359,0.08807 -0.488563,-0.04833 z m 8.172268,-0.0023 c -0.08516,-0.102606 -0.08875,-0.180928 -0.01566,-0.341339 0.168671,-0.370191 0.636283,-0.227331 0.589765,0.180179 -0.02173,0.190394 -0.07545,0.249203 -0.245704,0.268993 -0.122664,0.01426 -0.266184,-0.03287 -0.328401,-0.107833 z m 2.018922,-0.09152 c -0.0452,-0.118888 -0.08218,-0.270573 -0.08218,-0.337079 0,-0.09347 -0.133227,-0.120919 -0.586923,-0.120919 -0.62465,0 -0.761392,-0.08981 -0.761392,-0.500078 0,-0.146912 -0.0526,-0.174079 -0.337079,-0.174079 -0.327029,0 -0.337079,0.0085 -0.337079,0.285928 0,0.182991 -0.04799,0.304342 -0.133297,0.337079 -0.233736,0.08969 -1.00901,0.05491 -1.113895,-0.04997 -0.131295,-0.131296 -0.131295,-1.014773 0,-1.146068 0.05562,-0.05562 0.207304,-0.101124 0.337079,-0.101124 0.219102,0 0.235956,-0.02408 0.235956,-0.337079 0,-0.284475 -0.02717,-0.337079 -0.17408,-0.337079 -0.424675,0 -0.655167,-0.356269 -0.378854,-0.585588 0.136486,-0.113274 1.043957,-0.138102 1.147172,-0.03139 0.03682,0.03807 0.07935,0.182986 0.0945,0.322031 0.02372,0.217612 0.06862,0.258675 0.322496,0.294944 0.262172,0.03745 0.299626,0.07491 0.337079,0.337079 0.03745,0.262172 0.07491,0.299626 0.337079,0.337079 0.258521,0.03693 0.304584,0.08116 0.373009,0.358146 0.07068,0.286124 0.104553,0.316012 0.358146,0.316012 0.270582,0 0.280081,-0.01143 0.280081,-0.337079 0,-0.300728 -0.02207,-0.337079 -0.204655,-0.337079 -0.179497,0 -0.469502,-0.189323 -0.469502,-0.306503 0,-0.183265 0.208102,-0.367655 0.414934,-0.367655 0.207636,0 0.247946,-0.03986 0.295244,-0.291988 0.0689,-0.367268 0.115858,-0.394208 0.687144,-0.394208 0.540859,0 0.709421,0.105426 0.709421,0.443705 v 0.242491 h 0.634667 c 0.434247,0 0.644916,-0.03326 0.667119,-0.105337 0.01785,-0.05794 0.0553,-0.209621 0.08323,-0.337079 0.04146,-0.189219 0.09658,-0.231742 0.300377,-0.231742 0.203799,0 0.258915,0.04252 0.300377,0.231742 0.09209,0.420272 0.112775,0.442416 0.413271,0.442416 0.291007,0 0.297588,-0.0075 0.297588,-0.337079 0,-0.284475 -0.02717,-0.337079 -0.174079,-0.337079 -0.402098,0 -0.500078,-0.140343 -0.500078,-0.716292 0,-0.670259 0.06499,-0.716293 1.011236,-0.716293 0.810633,0 1.011237,0.08231 1.011237,0.414935 0,0.208683 0.03949,0.247873 0.298753,0.296512 0.358457,0.06725 0.459674,0.273633 0.459674,0.937299 0,0.451498 0.0035,0.457997 0.249845,0.457997 0.265579,0 0.424313,0.187077 0.424313,0.500079 0,0.136782 0.05353,0.174079 0.249845,0.174079 0.308658,0 0.476821,0.250046 0.340043,0.505618 -0.07584,0.141712 -0.176446,0.16854 -0.632023,0.16854 -0.575949,0 -0.716292,-0.09798 -0.716292,-0.500079 0,-0.146912 -0.0526,-0.174079 -0.337079,-0.174079 -0.328702,0 -0.337079,0.0073 -0.337079,0.293339 0,0.247197 -0.0352,0.302173 -0.223786,0.349505 -0.257728,0.06469 -0.450372,-0.127062 -0.450372,-0.448276 v -0.194568 h -1.685394 -1.685394 v 0.573034 c 0,0.633812 -0.07996,0.775281 -0.438203,0.775281 -0.182279,0 -0.235955,0.0396 -0.235955,0.17408 0,0.492027 -0.514926,0.708217 -0.676245,0.283918 z m 4.812356,0.09807 c -0.134209,-0.161712 -0.09055,-0.385447 0.09844,-0.504464 0.21617,-0.136134 0.442416,0.0361 0.442416,0.3368 0,0.199306 -0.03964,0.248231 -0.217888,0.268952 -0.119837,0.01393 -0.265174,-0.03165 -0.322968,-0.101288 z m 1.341419,-0.05044 c -0.197889,-0.36976 0.24208,-0.672849 0.541734,-0.373195 0.156665,0.156665 0.158009,0.167929 0.04519,0.378735 -0.115148,0.215154 -0.470607,0.211799 -0.586924,-0.0055 z m -4.041586,-0.627975 c -0.223859,-0.269733 0.104935,-0.684082 0.396921,-0.500203 0.29177,0.183743 0.187823,0.622559 -0.147472,0.622559 -0.08135,0 -0.193599,-0.05506 -0.249449,-0.122356 z m 1.361809,0.02123 c -0.05562,-0.05562 -0.101123,-0.161798 -0.101123,-0.235955 0,-0.240603 0.192952,-0.337079 0.674157,-0.337079 0.259551,0 0.517416,0.04551 0.573035,0.101123 0.144475,0.144476 0.124924,0.4616 -0.03217,0.521884 -0.233736,0.08969 -1.00901,0.05491 -1.113895,-0.04997 z m 2.008322,-0.06237 c -0.140744,-0.262983 0.03016,-0.528018 0.318977,-0.494651 0.197216,0.02278 0.226074,0.06377 0.226074,0.321062 0,0.257294 -0.02886,0.298277 -0.226074,0.321061 -0.159263,0.0184 -0.253529,-0.02518 -0.318977,-0.147472 z M 8.5483293,20.54667 c -0.223858,-0.269733 0.104936,-0.684082 0.396922,-0.500203 0.291769,0.183743 0.187822,0.62256 -0.147472,0.62256 -0.08135,0 -0.193599,-0.05506 -0.24945,-0.122357 z M 28.352202,19.873103 c -0.05558,-0.06697 -0.08866,-0.209176 -0.07352,-0.316012 0.02131,-0.150344 0.0942,-0.203768 0.32248,-0.23638 0.271059,-0.03872 0.297061,-0.06773 0.321098,-0.358146 0.02463,-0.297612 0.01212,-0.316012 -0.214887,-0.316012 -0.292069,0 -0.44329,-0.135823 -0.44329,-0.398153 0,-0.25327 0.336926,-0.388782 0.832052,-0.334652 0.404097,0.04418 0.513019,0.150158 0.514973,0.501064 0.0011,0.197325 0.03633,0.231741 0.237245,0.231741 0.344009,0 0.438203,0.144915 0.438203,0.674158 0,0.259551 -0.04551,0.517416 -0.101124,0.573034 -0.154249,0.154249 -1.702551,0.136816 -1.83323,-0.02064 z M 9.2229773,19.198945 c -0.05558,-0.06697 -0.08867,-0.209176 -0.07352,-0.316012 0.02125,-0.14991 0.08939,-0.200223 0.298521,-0.220436 0.230793,-0.02231 0.279059,0.006 0.325422,0.190702 0.09537,0.38 -0.310438,0.63491 -0.550423,0.345746 z m 10.2409397,-0.01066 c -0.101546,-0.101545 -0.132424,-0.31658 -0.132424,-0.922188 0,-0.720591 0.0164,-0.801255 0.18729,-0.920948 0.103009,-0.07215 0.246853,-0.131183 0.319652,-0.131183 0.07544,0 0.167036,-0.114703 0.212991,-0.266726 0.04435,-0.1467 0.149367,-0.307866 0.233381,-0.358147 0.398259,-0.238353 0.676419,0.849074 0.310732,1.214761 -0.0927,0.0927 -0.240103,0.16854 -0.327569,0.16854 -0.137667,0 -0.163546,0.07991 -0.192642,0.594837 -0.02267,0.401216 -0.07377,0.620236 -0.156982,0.672867 -0.178394,0.112833 -0.304119,0.0985 -0.454429,-0.05181 z M 8.6081723,18.555534 c -0.125512,-0.0731 -0.147472,-0.21659 -0.147472,-0.963575 0,-0.781489 0.01786,-0.88724 0.162999,-0.964914 0.08965,-0.04798 0.239674,-0.08723 0.333387,-0.08723 0.152796,0 0.172944,-0.06217 0.195147,-0.602126 0.01907,-0.46378 0.05864,-0.623419 0.172231,-0.694795 0.214751,-0.134943 0.436667,0.03422 0.468823,0.357386 0.0247,0.248244 0.04783,0.265378 0.3581457,0.265378 0.32996,0 0.33174,-0.0018 0.33174,-0.33174 0,-0.310321 -0.01713,-0.333445 -0.265378,-0.358146 -0.3232327,-0.03216 -0.4923627,-0.254112 -0.3572547,-0.468823 0.07645,-0.121488 0.2411827,-0.151679 0.9349537,-0.171348 0.99764,-0.02828 1.048033,0.0056 1.048033,0.703688 0,0.542137 -0.03674,0.602316 -0.391252,0.640952 -0.217742,0.02373 -0.256522,0.06621 -0.279577,0.30626 -0.03186,0.331792 -0.08663,0.358284 -0.784118,0.379275 l -0.5374297,0.01617 -0.02615,0.316012 -0.02615,0.316011 h 0.5162447 c 0.616631,0 0.842245,0.101581 0.842245,0.379214 0,0.30418 -0.232342,0.379214 -1.1742367,0.379214 h -0.848237 v 0.249844 c 0,0.160767 -0.05811,0.280946 -0.163,0.337079 -0.193992,0.103821 -0.178664,0.10398 -0.363686,-0.0038 z m 13.6053447,-0.0101 c -0.05562,-0.05562 -0.101123,-0.207304 -0.101123,-0.337079 0,-0.190297 -0.03765,-0.235955 -0.194568,-0.235955 -0.37936,0 -0.484669,-0.167571 -0.503888,-0.801794 l -0.01784,-0.588657 -0.294944,-0.04214 c -0.228283,-0.03261 -0.301167,-0.08604 -0.32248,-0.23638 -0.04807,-0.339116 0.121889,-0.437777 0.754147,-0.437777 0.578587,0 0.57957,-4e-4 0.57957,-0.235956 0,-0.344008 0.144914,-0.438202 0.674157,-0.438202 0.529244,0 0.674158,0.09419 0.674158,0.438202 0,0.190297 0.03765,0.235956 0.194568,0.235956 0.389672,0 0.490898,0.166277 0.463034,0.760596 l -0.02558,0.545584 -0.316012,0.07807 c -0.270952,0.06693 -0.316011,0.11157 -0.316011,0.313046 0,0.25011 -0.19461,0.409452 -0.500078,0.409452 -0.12814,0 -0.17408,0.05401 -0.17408,0.204655 0,0.361159 -0.353198,0.588215 -0.573034,0.368379 z m 0.557054,-1.647473 c -0.02474,-0.298851 -0.04332,-0.317432 -0.342166,-0.342166 l -0.316011,-0.02615 v 0.342166 0.342166 h 0.342166 0.342165 z m 7.650493,1.638538 c -0.09252,-0.06765 -0.139313,-0.189413 -0.121444,-0.316012 0.02451,-0.173657 0.07532,-0.205952 0.324015,-0.205952 0.248694,0 0.299502,0.0323 0.324014,0.205952 0.02582,0.182883 -0.159123,0.42607 -0.324014,0.42607 -0.02863,0 -0.119789,-0.04953 -0.202571,-0.110058 z M 11.963912,17.839972 c -0.07283,-0.07283 -0.132424,-0.220298 -0.132424,-0.327701 0,-0.155398 -0.05857,-0.206264 -0.286807,-0.249082 -0.256633,-0.04814 -0.38735,-0.178802 -0.38735,-0.387173 0,-0.142913 0.269928,-0.336206 0.469502,-0.336206 0.160514,0 0.204655,-0.04414 0.204655,-0.204655 0,-0.33106 0.21158,-0.469502 0.717534,-0.469502 0.367983,0 0.476481,0.03397 0.579861,0.181568 0.175966,0.251227 0.04082,0.474754 -0.307337,0.508326 -0.24991,0.0241 -0.276044,0.05394 -0.299919,0.34241 -0.0227,0.27428 -0.0025,0.316011 0.153011,0.316011 0.446984,0 0.680687,0.330096 0.418985,0.591799 -0.211784,0.211785 -0.930375,0.233541 -1.129711,0.03421 z m 15.679283,-0.04579 c -0.232981,-0.332628 0.107448,-0.677475 0.439319,-0.445023 0.222097,0.155562 0.230308,0.300198 0.02746,0.483771 -0.204574,0.185137 -0.31647,0.175848 -0.46678,-0.03875 z m 2.116675,0.08719 c -0.08772,-0.05109 -0.147472,-0.186636 -0.147472,-0.334516 0,-0.203529 -0.03529,-0.248622 -0.194568,-0.248622 -0.280276,0 -0.465181,-0.172987 -0.495414,-0.463484 -0.02199,-0.211323 -0.0678,-0.25733 -0.27912,-0.28036 -0.139045,-0.01515 -0.283958,-0.05768 -0.32203,-0.0945 -0.106715,-0.103214 -0.08189,-1.010686 0.03139,-1.147172 0.208187,-0.250851 0.585588,-0.02639 0.585588,0.348279 0,0.1942 0.02611,0.204655 0.511159,0.204655 0.643837,0 0.837157,0.09798 0.837157,0.424313 0,0.204806 0.03507,0.249844 0.194568,0.249844 0.293684,0 0.500061,0.188482 0.466525,0.42607 -0.0224,0.158724 -0.101539,0.223856 -0.345082,0.284018 -0.248519,0.06139 -0.316011,0.118599 -0.316011,0.267857 0,0.17955 -0.198088,0.457632 -0.322031,0.452078 -0.03145,-0.0014 -0.123545,-0.04122 -0.204655,-0.08846 z M 13.348343,17.129698 c -0.139228,-0.139228 -0.154754,-0.205376 -0.08069,-0.34377 0.136917,-0.255833 0.326226,-0.290842 0.520763,-0.09631 0.194537,0.194537 0.159529,0.383846 -0.0963,0.520764 -0.138393,0.07407 -0.204542,0.05854 -0.34377,-0.08069 z m 13.27248,-0.576277 c -0.341029,-0.03848 -0.463483,-0.156122 -0.463483,-0.445278 0,-0.209405 -0.03219,-0.24249 -0.235955,-0.24249 -0.297939,0 -0.438203,-0.138555 -0.438203,-0.432864 0,-0.196897 -0.0388,-0.234477 -0.265378,-0.257022 -0.323267,-0.03217 -0.492379,-0.254131 -0.357192,-0.468823 0.07919,-0.125767 0.252769,-0.15105 1.179344,-0.171783 0.597567,-0.01337 1.167626,-0.0042 1.266798,0.02034 0.408762,0.101223 0.290085,0.635994 -0.141142,0.635994 -0.235306,0 -0.249845,0.01961 -0.249845,0.337079 0,0.293001 0.02479,0.337247 0.189607,0.338369 0.229721,0.0016 0.353536,0.07919 0.421708,0.264395 0.112223,0.304882 -0.288964,0.491732 -0.906259,0.422083 z m -2.394791,-0.805864 c -0.134209,-0.161712 -0.09055,-0.385446 0.09844,-0.504464 0.216169,-0.136134 0.442416,0.0361 0.442416,0.3368 0,0.199307 -0.03964,0.248232 -0.217888,0.268953 -0.119838,0.01393 -0.265174,-0.03165 -0.32297,-0.101289 z m 6.111675,-0.0152 c -0.02813,-0.07331 -0.05115,-0.223404 -0.05115,-0.333534 0,-0.191462 -0.02862,-0.201316 -0.65309,-0.22485 -0.60924,-0.02296 -0.65494,-0.03765 -0.680627,-0.218857 -0.05199,-0.366772 0.108597,-0.437778 0.990102,-0.437778 0.521938,0 0.85193,0.03641 0.916649,0.101124 0.104885,0.104885 0.139666,0.880158 0.04997,1.113895 -0.06745,0.175783 -0.504402,0.175783 -0.571856,0 z M 12.593183,15.02906 c -0.160239,-0.299409 0.115924,-0.590045 0.441829,-0.464983 0.327228,0.125569 0.207127,0.627418 -0.150152,0.627418 -0.115933,0 -0.242453,-0.07046 -0.291677,-0.162435 z m 8.227075,0.106255 c -0.110477,-0.110476 -0.0553,-0.516013 0.07712,-0.566827 0.07331,-0.02813 0.339576,-0.05115 0.591695,-0.05115 0.405715,0 0.469299,0.02393 0.55325,0.208179 0.153651,0.337228 -0.02387,0.465979 -0.642493,0.465979 -0.287864,0 -0.54867,-0.02528 -0.579569,-0.05618 z m 2.741575,-0.04494 c -0.05562,-0.05562 -0.101124,-0.204901 -0.101124,-0.331739 0,-0.196898 -0.0388,-0.234477 -0.265378,-0.257023 -0.533262,-0.05306 -0.537408,-0.589097 -0.005,-0.642331 0.222371,-0.02223 0.264213,-0.06407 0.286446,-0.286445 0.01432,-0.143226 0.0924,-0.301961 0.173507,-0.352747 0.213643,-0.133768 0.436595,0.03412 0.468452,0.352747 0.02223,0.222371 0.06407,0.264212 0.286446,0.286445 0.53244,0.05323 0.528293,0.589268 -0.005,0.642331 -0.22657,0.02255 -0.265371,0.06012 -0.265371,0.257023 0,0.258977 -0.135408,0.432863 -0.337079,0.432863 -0.07416,0 -0.180337,-0.04551 -0.235955,-0.101124 z M 9.4452913,13.725021 c -0.404609,-0.149249 -0.622341,-0.345138 -0.825019,-0.742249 -0.235444,-0.461311 -0.235444,-2.621247 0,-3.0825584 0.352218,-0.6901099 0.760982,-0.8516138 2.1683167,-0.8567087 1.435156,-0.0052 1.87977,0.1672711 2.237334,0.8678648 0.14747,0.2889473 0.162383,0.4666113 0.138505,1.6501363 -0.02632,1.304448 -0.03065,1.331429 -0.262857,1.63555 -0.402045,0.526566 -0.625394,0.597819 -1.954915,0.62366 -0.854544,0.01661 -1.2684287,-0.0098 -1.5013647,-0.09569 z m 2.5097117,-0.675765 c 0.456951,-0.190927 0.550643,-0.474924 0.550643,-1.669098 0,-1.5024228 -0.166211,-1.6661941 -1.691019,-1.6661941 -1.4983637,0 -1.6797687,0.1931869 -1.6797687,1.7888631 0,1.154536 0.06421,1.33912 0.537497,1.545106 0.3637147,0.158297 1.9048167,0.15919 2.2826477,0.0013 z M 10.17267,12.414416 C 9.8940843,12.295497 9.8090153,12.059345 9.8090153,11.404898 c 0,-0.867815 0.2621747,-1.0788 1.2398027,-0.997727 0.654692,0.05429 0.78267,0.223418 0.78267,1.034321 0,0.856706 -0.121967,0.996686 -0.895759,1.028046 -0.318428,0.0129 -0.661805,-0.0119 -0.763059,-0.05512 z m 5.201506,1.306407 c -0.223859,-0.269733 0.104936,-0.684082 0.396921,-0.500203 0.187225,0.117905 0.232983,0.342351 0.101978,0.500203 -0.130164,0.156838 -0.368735,0.156838 -0.498899,0 z m 5.488491,0.04872 c -0.06366,-0.04036 -0.100068,-0.176322 -0.08427,-0.314721 0.02203,-0.193014 0.07481,-0.249095 0.25389,-0.269783 0.159263,-0.0184 0.253529,0.02518 0.318977,0.147472 0.180063,0.336452 -0.163086,0.643387 -0.488597,0.437032 z m 1.35085,-0.02749 c -0.05562,-0.05562 -0.101123,-0.187621 -0.101123,-0.293339 0,-0.231088 0.353727,-0.356453 0.548847,-0.194517 0.236226,0.19605 0.09495,0.588979 -0.211769,0.588979 -0.07416,0 -0.180337,-0.04551 -0.235955,-0.101123 z m 2.696631,0 c -0.05562,-0.05562 -0.101124,-0.316425 -0.101124,-0.57957 0,-0.526423 0.115499,-0.69871 0.437778,-0.653024 0.176269,0.02499 0.196585,0.07696 0.219525,0.56158 0.02637,0.556991 -0.06104,0.772137 -0.313688,0.772137 -0.07775,0 -0.186873,-0.04551 -0.242491,-0.101123 z m 2.384833,0.03327 c -0.38,-0.132015 -0.711523,-0.399902 -0.89737,-0.72512 -0.172518,-0.301894 -0.200748,-0.479872 -0.227465,-1.434096 -0.03383,-1.208316 0.03837,-1.581203 0.386234,-1.9946106 0.396999,-0.4718065 0.764917,-0.5779928 2.002647,-0.5779928 1.23773,0 1.605648,0.1061863 2.002647,0.5779928 0.34997,0.4159166 0.419481,0.7831246 0.386618,2.0424146 -0.0271,1.038531 -0.04756,1.164612 -0.232788,1.434781 -0.111692,0.162909 -0.336336,0.387582 -0.49921,0.499273 -0.276219,0.189419 -0.37874,0.20418 -1.524454,0.219493 -0.675576,0.009 -1.304162,-0.0099 -1.396859,-0.04214 z m 2.399157,-0.714113 c 0.114481,-0.05793 0.294607,-0.233622 0.400281,-0.390433 0.170949,-0.25367 0.192137,-0.386877 0.192137,-1.207948 0,-1.5402228 -0.207869,-1.7490822 -1.740265,-1.7485541 -0.758058,2.612e-4 -0.960317,0.028415 -1.184016,0.1648128 -0.462901,0.2822463 -0.548237,0.5616553 -0.51656,1.6913303 0.02596,0.925905 0.04267,1.011496 0.238592,1.222065 0.115871,0.124534 0.286517,0.257797 0.379213,0.296139 0.273137,0.112977 1.994991,0.09182 2.230618,-0.02741 z m -1.827657,-0.668005 c -0.408167,-0.197063 -0.489484,-1.408264 -0.119395,-1.778354 0.15894,-0.158939 0.277564,-0.184599 0.853407,-0.184599 0.85016,0 0.948284,0.08295 0.996648,0.842497 0.04071,0.639383 -0.07596,0.991287 -0.373617,1.12691 -0.260181,0.118546 -1.106472,0.114521 -1.357043,-0.0065 z m -6.327122,0.674689 c -0.05562,-0.05562 -0.101123,-0.207304 -0.101123,-0.337079 V 12.49486 h -0.920948 c -0.724865,0 -0.949142,-0.0282 -1.053371,-0.132424 -0.156665,-0.156665 -0.158009,-0.167929 -0.04519,-0.378734 0.05613,-0.104886 0.176312,-0.163 0.337079,-0.163 0.196315,0 0.249845,-0.0373 0.249845,-0.174079 0,-0.288491 0.160448,-0.500079 0.379213,-0.500079 0.220147,0 0.379214,0.2119 0.379214,0.505166 0,0.155506 0.04173,0.175712 0.316012,0.153012 0.29042,-0.02404 0.319423,-0.05004 0.358146,-0.321099 0.03261,-0.228283 0.08604,-0.301167 0.23638,-0.32248 0.265496,-0.03764 0.437778,0.126495 0.437778,0.417068 0,0.209406 0.03219,0.242491 0.235955,0.242491 0.269786,0 0.438202,0.134889 0.438202,0.350968 0,0.168103 -0.239968,0.32319 -0.500078,0.32319 -0.119747,0 -0.174079,0.05433 -0.174079,0.174079 0,0.413216 -0.329423,0.642566 -0.573035,0.398955 z m 1.335745,-0.02012 c -0.06381,-0.07689 -0.08527,-0.217446 -0.05289,-0.346459 0.04372,-0.174202 0.098,-0.211872 0.274788,-0.190701 0.121166,0.01451 0.261854,0.09274 0.31264,0.173853 0.194094,0.309982 -0.300058,0.645839 -0.534538,0.363307 z m 1.360886,-0.654038 c -0.05562,-0.05562 -0.101123,-0.207303 -0.101123,-0.337079 0,-0.190297 -0.03765,-0.235955 -0.194568,-0.235955 -0.293684,0 -0.500062,-0.188481 -0.466526,-0.42607 0.02317,-0.164157 0.08563,-0.211385 0.307779,-0.23272 0.282501,-0.02713 0.300295,-0.0479 0.389091,-0.454092 0.03917,-0.17917 0.112924,-0.239883 0.344117,-0.283255 0.276261,-0.05183 0.294264,-0.07525 0.294264,-0.382905 0,-0.317993 -0.0087,-0.3277001 -0.293338,-0.3277001 -0.247198,0 -0.302174,-0.035201 -0.349505,-0.223786 -0.04137,-0.1648497 -0.01536,-0.2536227 0.09877,-0.3370789 0.212035,-0.1550432 0.999978,-0.1483291 1.131079,0.00964 0.06881,0.082911 0.102023,0.4955469 0.102023,1.267519 0,1.251396 -0.04466,1.39045 -0.446537,1.39045 -0.209406,0 -0.242492,0.03219 -0.242492,0.235955 0,0.263826 -0.134135,0.438203 -0.337078,0.438203 -0.07416,0 -0.180338,-0.04551 -0.235956,-0.101124 z m -9.522477,-0.674154 c -0.05562,-0.05562 -0.101124,-0.207303 -0.101124,-0.337078 0,-0.190297 -0.03765,-0.235956 -0.194568,-0.235956 -0.421519,0 -0.493635,-0.151975 -0.493635,-1.040279 0,-0.8165177 0.07343,-1.0664629 0.313288,-1.0664629 0.252207,0 0.374915,0.2608778 0.374915,0.797072 v 0.5322239 l 0.594837,0.03361 c 0.580645,0.03281 0.748784,0.117678 0.752188,0.37967 0.0022,0.166656 -0.251775,0.364165 -0.468212,0.364165 -0.160514,0 -0.204655,0.04414 -0.204655,0.204655 0,0.361159 -0.353199,0.588215 -0.573034,0.36838 z m 6.103835,-0.751247 c -0.232981,-0.332627 0.107448,-0.677475 0.439319,-0.445023 0.222098,0.155563 0.230308,0.300198 0.02746,0.483771 -0.204574,0.185137 -0.31647,0.175848 -0.46678,-0.03875 z m 1.442518,0.08719 c -0.197994,-0.115321 -0.188475,-0.470994 0.01553,-0.580173 0.180302,-0.0965 0.618027,-0.112749 0.912361,-0.03388 0.260829,0.06989 0.350221,0.440161 0.14287,0.591779 -0.181152,0.132461 -0.857424,0.146529 -1.070758,0.02227 z m -6.15169,-0.674157 c -0.367673,-0.21415 -0.01756,-0.7842098 0.358147,-0.5831384 0.217339,0.1163164 0.220694,0.4717754 0.0055,0.5869234 -0.193991,0.103821 -0.178663,0.10398 -0.363686,-0.0038 z m 2.801968,0.0296 c -0.269948,-0.10276 -0.324828,-0.360137 -0.120385,-0.5645803 0.09292,-0.09292 0.294032,-0.1324238 0.674158,-0.1324238 0.462949,0 0.541734,-0.021784 0.541734,-0.149789 0,-0.082384 0.05903,-0.2340693 0.131182,-0.3370788 0.119694,-0.1708856 0.200357,-0.18729 0.920949,-0.18729 0.957698,0 1.055203,0.064913 1.053321,0.7012445 -0.0014,0.4706554 -0.04816,0.5889034 -0.264395,0.6684974 -0.200881,0.07394 -0.393871,-0.108288 -0.424296,-0.40064 -0.02349,-0.2256686 -0.06024,-0.2556172 -0.342322,-0.2789637 -0.289696,-0.023976 -0.316012,-0.00819 -0.316012,0.1896069 0,0.4174558 -0.257321,0.5536028 -1.032304,0.5461868 -0.382374,-0.0037 -0.752107,-0.02831 -0.82163,-0.05477 z m 4.698037,-0.0296 c -0.367673,-0.21415 -0.01756,-0.7842098 0.358146,-0.5831384 0.217339,0.1163164 0.220694,0.4717754 0.0055,0.5869234 -0.193992,0.103821 -0.178664,0.10398 -0.363686,-0.0038 z M 16.971941,9.714285 C 16.738068,9.680617 16.670978,9.629181 16.647926,9.4658722 c -0.01787,-0.1265985 0.02892,-0.2483589 0.121444,-0.3160115 0.197672,-0.1445415 1.644003,-0.1517737 1.786842,-0.00893 0.132718,0.1327182 0.129948,0.4833249 -0.0042,0.5332625 -0.161768,0.060213 -1.248714,0.087797 -1.580057,0.040097 z M 15.342726,9.65778 c -0.102329,-0.102329 -0.05825,-0.427083 0.07272,-0.5357793 0.09856,-0.081799 0.177897,-0.084653 0.337079,-0.012125 0.209147,0.095294 0.251914,0.2235166 0.157027,0.4707874 -0.05081,0.1324202 -0.45635,0.1875935 -0.566827,0.077117 z"
       id="path177" /></g></svg>
