<?xml version="1.0" encoding="UTF-8" standalone="no"?>
<!-- Created with Inkscape (http://www.inkscape.org/) -->

<svg
   version="1.1"
   id="svg541"
   width="100"
   height="100"
   viewBox="0 0 100 100"
   sodipodi:docname="recreator_logo .svg"
   inkscape:version="1.2.2 (b0a8486541, 2022-12-01)"
   xml:space="preserve"
   xmlns:inkscape="http://www.inkscape.org/namespaces/inkscape"
   xmlns:sodipodi="http://sodipodi.sourceforge.net/DTD/sodipodi-0.dtd"
   xmlns="http://www.w3.org/2000/svg"
   xmlns:svg="http://www.w3.org/2000/svg"><defs
     id="defs545" /><sodipodi:namedview
     id="namedview543"
     pagecolor="#ffffff"
     bordercolor="#000000"
     borderopacity="0.25"
     inkscape:showpageshadow="2"
     inkscape:pageopacity="0.0"
     inkscape:pagecheckerboard="0"
     inkscape:deskcolor="#d1d1d1"
     showgrid="false"
     inkscape:zoom="1.7975"
     inkscape:cx="309.04033"
     inkscape:cy="132.96245"
     inkscape:window-width="1920"
     inkscape:window-height="1008"
     inkscape:window-x="0"
     inkscape:window-y="0"
     inkscape:window-maximized="1"
     inkscape:current-layer="g547" /><g
     inkscape:groupmode="layer"
     inkscape:label="Image"
     id="g547"><path
       style="fill:#000000;stroke-width:0.155524"
       d="m 55.332451,80.703596 c -2.35231,-4.177208 -4.25396,-7.671739 -4.2259,-7.765626 0.0281,-0.09389 1.95268,-3.58368 4.27693,-7.755097 l 4.22589,-7.584394 0.10121,1.285654 c 0.0557,0.707111 0.10815,1.933026 0.11664,2.724256 l 0.0154,1.438601 h 9.31779 c 10.10136,0 10.59261,-0.03333 12.65392,-0.858554 1.36622,-0.54695 2.78036,-1.457355 3.82271,-2.461014 l 0.83274,-0.801829 -0.32071,0.641897 c -0.17639,0.353044 -1.20399,2.557603 -2.28354,4.89902 -1.07956,2.341417 -2.47078,5.242713 -3.0916,6.447325 -3.50471,6.800345 -6.7618,9.65677 -12.41921,10.891507 -0.75971,0.16581 -2.32334,0.27294 -4.81839,0.33013 l -3.69371,0.0847 -0.0174,1.57231 c -0.01,0.86476 -0.0621,2.2324 -0.11664,3.03919 l -0.0992,1.46688 z m -26.45302,1.260096 c -2.36023,-0.833207 -5.18799,-2.878362 -7.33454,-5.304649 -2.81986,-3.187348 -4.64668,-6.184179 -8.64838,-14.187331 l -1.88183,-3.763532 1.30036,1.041854 c 1.46316,1.172284 3.44334,2.392773 4.83616,2.980775 l 0.93315,0.393944 13.49174,0.04221 13.49175,0.04221 v 9.56142 9.561419 l -7.58182,-0.003 c -7.53464,-0.003 -7.58819,-0.005 -8.60659,-0.36505 z M 18.162111,61.75885 c -3.1254,-1.072699 -5.77029,-3.574718 -7.39469,-6.995244 l -0.54349,-1.144434 3.11371,-6.339751 c 1.71253,-3.486865 3.1137,-6.388386 3.1137,-6.447826 0,-0.05944 -1.13727,-0.733658 -2.52727,-1.498265 -1.39,-0.764605 -2.73723,-1.515408 -2.99385,-1.66845 -0.45176,-0.269426 -0.1753,-0.278125 8.70937,-0.27403 l 9.17594,0.0042 4.37286,7.965819 c 2.40507,4.3812 4.3519,7.990259 4.32629,8.020132 -0.0256,0.02987 -1.35075,-0.729423 -2.94474,-1.687325 -1.594,-0.957901 -2.91815,-1.717196 -2.94256,-1.687322 -0.0244,0.02987 -1.32732,2.766273 -2.89536,6.080888 l -2.85098,6.026572 -3.35401,-0.004 c -3.05783,-0.0037 -3.44328,-0.03465 -4.36492,-0.350978 z m 55.50634,0.247672 -1.95995,-0.05715 -4.05058,-7.461437 c -2.22782,-4.103793 -4.00531,-7.488482 -3.94998,-7.521534 0.0553,-0.03305 3.62198,-2.202276 7.92589,-4.820499 4.30391,-2.618222 7.96357,-4.83441 8.13258,-4.92486 0.28578,-0.152944 0.58522,0.399406 4.27862,7.892442 4.47265,9.073948 4.24046,8.352537 3.31683,10.305564 -1.17634,2.487376 -3.9597,5.000612 -6.75669,6.100955 -1.12708,0.4434 -1.41985,0.492022 -3.11048,0.516573 -1.02647,0.01492 -2.74827,0.0014 -3.82624,-0.03005 z m -41.93418,-30.008248 -8.10191,-5.076137 4.19043,-6.282791 c 4.5456,-6.815309 4.19902,-6.427044 6.09271,-6.825395 2.75656,-0.579861 5.4135,-0.02477 7.91354,1.653302 1.30764,0.877716 3.36235,2.966553 4.83729,4.917638 l 1.19789,1.584604 -3.92546,7.5478 c -2.15901,4.151291 -3.96531,7.549896 -4.01402,7.552458 -0.0487,0.0026 -3.73441,-2.279606 -8.19047,-5.071479 z m 17.9993,4.858516 c 0,-0.03415 1.25975,-0.744917 2.79944,-1.579476 1.53969,-0.83456 2.79944,-1.603748 2.79944,-1.709306 0,-0.482517 -2.68032,-5.927475 -4.31422,-8.764149 -2.35312,-4.085359 -6.38667,-8.884948 -9.21931,-10.970215 l -0.96446,-0.709998 h 10.7903 c 10.42937,0 10.82911,0.01075 11.95047,0.321498 2.88348,0.799054 4.62652,2.621223 7.68094,8.02964 l 1.51044,2.674495 1.99517,-1.298049 c 2.8646,-1.863696 2.76858,-1.827279 2.19918,-0.834115 -0.26072,0.454744 -2.24189,3.990796 -4.4026,7.857892 l -3.92857,7.031084 -9.44811,0.0064 c -5.19646,0.0035 -9.44811,-0.02154 -9.44811,-0.05569 z"
       id="path177" /></g></svg>
