<?xml version="1.0" encoding="UTF-8" standalone="no"?>
<!-- Created with Inkscape (http://www.inkscape.org/) -->

<svg
   width="39mm"
   height="39mm"
   viewBox="0 0 39 39"
   version="1.1"
   id="svg5"
   xml:space="preserve"
   inkscape:version="1.2.2 (b0a8486541, 2022-12-01)"
   sodipodi:docname="recreator_qr .svg"
   xmlns:inkscape="http://www.inkscape.org/namespaces/inkscape"
   xmlns:sodipodi="http://sodipodi.sourceforge.net/DTD/sodipodi-0.dtd"
   xmlns="http://www.w3.org/2000/svg"
   xmlns:svg="http://www.w3.org/2000/svg"><sodipodi:namedview
     id="namedview7"
     pagecolor="#ffffff"
     bordercolor="#000000"
     borderopacity="0.25"
     inkscape:showpageshadow="2"
     inkscape:pageopacity="0.0"
     inkscape:pagecheckerboard="0"
     inkscape:deskcolor="#d1d1d1"
     inkscape:document-units="mm"
     showgrid="false"
     inkscape:zoom="2.8284271"
     inkscape:cx="85.736697"
     inkscape:cy="89.449008"
     inkscape:window-width="1920"
     inkscape:window-height="1008"
     inkscape:window-x="0"
     inkscape:window-y="0"
     inkscape:window-maximized="1"
     inkscape:current-layer="layer1" /><defs
     id="defs2" /><g
     inkscape:label="Layer 1"
     inkscape:groupmode="layer"
     id="layer1"><path
       style="fill:#000000;stroke-width:0.120431"
       d="m 21.631617,35.755413 c -0.115869,-0.03028 -0.245975,-0.195721 -0.289124,-0.36764 -0.09302,-0.370622 0.290193,-0.753666 0.753998,-0.753666 0.235935,0 0.287735,-0.06168 0.287735,-0.342626 0,-0.419289 0.331049,-0.741249 0.762174,-0.741249 0.273264,0 0.321701,-0.05159 0.321701,-0.342626 0,-0.419289 0.331049,-0.741249 0.762174,-0.741249 0.273264,0 0.321701,-0.05159 0.321701,-0.342626 0,-0.419289 0.33105,-0.741249 0.762174,-0.741249 0.300989,0 0.321702,-0.03489 0.321702,-0.541938 v -0.541937 h -0.959208 c -1.125899,0 -1.208543,-0.07711 -1.208543,-1.127571 0,-0.763152 0.194735,-1.04018 0.731186,-1.04018 h 0.352689 v -1.083875 -1.083875 h -0.352689 c -0.363609,0 -0.731186,-0.265193 -0.731186,-0.527522 0,-0.08196 0.07003,-0.24479 0.15561,-0.361834 0.126087,-0.172436 0.33171,-0.211888 1.083875,-0.207962 l 0.928266,0.0048 v -0.537641 -0.537639 h -1.083876 -1.083875 v 0.41727 c 0,0.57058 -0.234213,0.666611 -1.625813,0.666611 -1.277134,0 -1.625813,-0.111969 -1.625813,-0.522088 0,-0.45818 0.226547,-0.561787 1.228392,-0.561787 h 0.939359 v -0.956616 c 0,-0.837502 0.03172,-0.978835 0.254771,-1.135065 0.405662,-0.284135 0.757137,-0.08109 0.829104,0.478979 l 0.06021,0.468611 1.053768,0.02859 1.053768,0.02859 v -0.35973 c 0,-0.438692 0.374709,-0.841498 0.782798,-0.841498 0.240862,0 0.301077,-0.06021 0.301077,-0.301077 0,-0.299265 0.371949,-0.782798 0.602153,-0.782798 0.06624,0 0.228818,0.108387 0.361292,0.240861 0.198041,0.198041 0.240861,0.401435 0.240861,1.14409 v 0.90323 h 0.41727 c 0.584701,0 0.666605,0.22923 0.666605,1.865681 v 1.399794 l 0.51183,-0.03703 c 0.477707,-0.03456 0.514301,-0.06253 0.548899,-0.419463 0.02039,-0.210337 0.112527,-0.445055 0.204753,-0.521596 0.218015,-0.180936 1.595031,-0.173874 1.815756,0.0093 0.406134,0.337061 0.04328,0.954931 -0.560798,0.954931 -0.337715,0 -0.352689,0.02301 -0.352689,0.541937 0,0.539699 0.0018,0.541938 0.424089,0.541938 0.329465,0 0.453147,0.06378 0.554327,0.285843 0.203595,0.446842 -0.04335,0.798032 -0.561146,0.798032 -0.414256,0 -0.41727,0.0039 -0.41727,0.541938 0,0.518928 0.01497,0.541937 0.352689,0.541937 0.449641,0 0.731186,0.281545 0.731186,0.731186 0,0.337715 0.02301,0.352689 0.541937,0.352689 0.532814,0 0.541938,-0.0067 0.541938,-0.39742 0,-0.57178 0.181065,-0.686455 1.083875,-0.686455 0.841879,0 1.083876,0.120998 1.083876,0.541938 0,0.361258 -0.228861,0.541937 -0.686455,0.541937 -0.369321,0 -0.397421,0.0281 -0.397421,0.397421 0,0.502538 -0.183916,0.686455 -0.686454,0.686455 -0.39073,0 -0.397421,0.0091 -0.397421,0.541937 0,0.518928 0.01497,0.541938 0.352689,0.541938 0.558402,0 0.731186,0.270775 0.731186,1.145863 0,0.63886 -0.04164,0.796535 -0.248651,0.941531 -0.136759,0.09579 -0.354128,0.146581 -0.48304,0.112869 -0.218464,-0.05713 -0.28817,-0.207226 -0.378641,-0.815312 -0.02829,-0.190135 -0.143409,-0.24866 -0.546627,-0.277893 l -0.510791,-0.03703 v 0.548862 c 0,0.490867 0.02898,0.548862 0.274279,0.548862 0.372928,0 0.809596,0.324781 0.809596,0.602153 0,0.440753 -0.452932,0.602153 -1.689807,0.602153 -1.51395,0 -1.561856,-0.038 -1.595589,-1.265583 l -0.02645,-0.962383 -0.51183,-0.03703 -0.51183,-0.03703 v 0.910154 c 0,1.173128 -0.179806,1.391876 -1.14409,1.391876 -0.501795,0 -0.720759,-0.05839 -0.90323,-0.240861 -0.132474,-0.132474 -0.240861,-0.295055 -0.240861,-0.361292 0,-0.230204 0.483534,-0.602153 0.782799,-0.602153 0.276545,0 0.301076,-0.04416 0.301076,-0.541937 V 33.55023 H 27.345 c -0.439332,0 -0.463357,0.021 -0.572046,0.500101 -0.07976,0.351595 -0.194759,0.529565 -0.387254,0.599321 -0.366451,0.132792 -0.749858,-0.248158 -0.749858,-0.745055 0,-0.358717 -0.0132,-0.36726 -0.51183,-0.331184 -0.509342,0.03685 -0.51201,0.03952 -0.548863,0.548862 -0.03484,0.481489 -0.0183,0.51183 0.278886,0.51183 0.51002,0 0.781807,0.209333 0.781807,0.602153 0,0.225565 -0.08402,0.397782 -0.232944,0.477486 -0.225811,0.120849 -3.336804,0.155221 -3.771291,0.04167 z m 7.353108,-3.800886 c -0.03685,-0.509342 -0.03952,-0.512009 -0.548862,-0.548862 l -0.51183,-0.03703 v 0.548863 0.548862 h 0.548862 0.548863 z m 2.167751,0 c -0.03685,-0.509342 -0.03952,-0.512009 -0.548863,-0.548862 l -0.51183,-0.03703 v 0.548863 0.548862 h 0.548863 0.548862 z m -1.068522,-3.281733 0.0081,-1.625813 h -1.62595 -1.625951 v 1.625813 1.625813 h 1.617846 1.617846 l 0.0081,-1.625813 z m -1.98806,0.449771 c -0.383906,-0.262877 -0.157484,-0.991709 0.308088,-0.991709 0.262835,0 0.603926,0.306081 0.603926,0.541938 0,0.385025 -0.585141,0.673593 -0.912014,0.449771 z M 27.803602,24.879231 V 23.795356 H 27.32188 26.840158 v 1.083875 1.083875 h 0.481722 0.481722 z M 5.2587882,35.557847 c -0.464855,-0.211801 -0.926523,-0.672765 -1.191731,-1.189911 -0.198677,-0.387414 -0.228878,-0.715639 -0.22716,-2.468826 0.0018,-1.870717 0.02218,-2.057679 0.271991,-2.498724 0.148505,-0.262192 0.504541,-0.641548 0.791191,-0.843014 l 0.521183,-0.3663 h 2.187484 2.187484 l 0.5076558,0.344425 c 0.326408,0.221456 0.61664,0.563127 0.812907,0.956984 0.287469,0.576876 0.30525,0.72193 0.30525,2.490281 0,1.709838 -0.02423,1.925147 -0.270969,2.408092 -0.149033,0.291702 -0.479056,0.69609 -0.733386,0.89864 l -0.4624168,0.368273 -2.187056,0.02416 c -1.522027,0.01682 -2.285993,-0.02091 -2.512427,-0.12408 z m 4.369376,-1.129202 C 10.249653,34.061523 10.363832,33.617608 10.32004,31.738729 l -0.03909,-1.677038 -0.3933718,-0.393372 -0.393371,-0.393372 -1.63604,-0.03966 c -1.810511,-0.0439 -2.157659,0.03592 -2.63774,0.606463 -0.286751,0.340785 -0.298638,0.421968 -0.298638,2.039617 0,1.785482 0.05944,2.038262 0.58339,2.481178 0.298944,0.252708 0.432708,0.27041 2.047501,0.270969 1.412996,4.81e-4 1.791012,-0.03682 2.075482,-0.204864 z m -3.326895,-1.174016 c -0.267122,-0.267121 -0.295603,-0.393473 -0.295603,-1.311394 0,-1.448313 0.117029,-1.571211 1.548607,-1.626269 1.033227,-0.03974 1.103876,-0.0263 1.395668,0.265494 0.281813,0.281813 0.307351,0.393319 0.307351,1.341959 0,0.937899 -0.02763,1.06224 -0.295602,1.33021 -0.267971,0.267972 -0.392312,0.295603 -1.330211,0.295603 -0.937899,0 -1.062239,-0.02763 -1.33021,-0.295603 z m 9.8807818,1.385683 c -0.266131,-0.09876 -0.393076,-0.694201 -0.317703,-1.490203 0.05674,-0.599181 0.482059,-0.844812 0.864125,-0.499048 0.20813,0.188355 0.240886,0.343193 0.211243,0.998543 -0.03847,0.850428 -0.281021,1.16759 -0.757665,0.990708 z m 4.277339,-0.107687 c -0.191351,-0.16052 -0.244312,-0.376414 -0.270529,-1.102823 l -0.0326,-0.90323 -0.51183,-0.03703 c -0.507876,-0.03675 -0.51183,-0.03391 -0.51183,0.367313 0,0.492084 -0.181137,0.693379 -0.623945,0.693379 -0.336353,0 -0.380161,-0.07049 -0.486515,-0.782799 -0.02717,-0.181947 -0.153505,-0.255589 -0.516519,-0.301076 -0.426077,-0.05339 -0.485141,-0.100501 -0.520995,-0.415569 -0.04797,-0.421556 0.222571,-0.668306 0.73275,-0.668306 0.331637,0 0.343744,-0.02011 0.308166,-0.51183 l -0.03703,-0.51183 -0.897849,-0.03588 c -0.969569,-0.03875 -1.209687,-0.149298 -1.209687,-0.55693 0,-0.486235 0.208875,-0.551278 1.77033,-0.551278 h 1.481296 v -0.541938 c 0,-0.532814 -0.0067,-0.541938 -0.397421,-0.541938 -0.502537,0 -0.686454,-0.183916 -0.686454,-0.686454 0,-0.39073 -0.0091,-0.397421 -0.541938,-0.397421 -0.518928,0 -0.541937,0.01497 -0.541937,0.35269 0,0.580426 -0.262499,0.731185 -1.273124,0.731185 h -0.894627 v 1.392869 c 0,1.629374 -0.08226,1.858757 -0.666605,1.858757 -0.414255,0 -0.41727,0.0039 -0.41727,0.541937 0,0.49778 0.02453,0.541938 0.301076,0.541938 0.284842,0 0.782799,0.368402 0.782799,0.579135 0,0.05358 -0.06949,0.192448 -0.154427,0.308603 -0.121495,0.166156 -0.332535,0.211191 -0.989663,0.211191 -1.087712,0 -1.144091,-0.07771 -1.144091,-1.576872 0,-1.336276 0.152603,-1.689807 0.729412,-1.689807 h 0.354463 V 29.214736 28.13086 h -0.352689 c -0.371531,0 -0.731186,-0.266567 -0.731186,-0.541937 0,-0.275371 0.359655,-0.541938 0.731186,-0.541938 0.337715,0 0.352689,-0.02301 0.352689,-0.541937 V 25.96311 h -0.894627 c -1.010625,0 -1.273123,-0.15076 -1.273123,-0.731186 v -0.352689 h -0.894627 c -1.1755388,0 -1.2731238,-0.09759 -1.2731238,-1.273123 v -0.894631 h -0.352692 c -0.673045,0 -0.973684,-0.659505 -0.463528,-1.016832 0.203838,-0.142774 0.591489,-0.187474 1.6258128,-0.187474 1.292275,0 1.358155,-0.01207 1.358155,-0.248778 0,-0.926097 0.983287,-1.072241 1.152311,-0.171266 0.07396,0.394251 0.107557,0.420044 0.54712,0.420044 0.466085,0 0.468319,-0.0023 0.468319,-0.481722 0,-0.43355 -0.03011,-0.481723 -0.301076,-0.481723 -0.507201,0 -0.782799,-0.393362 -0.782799,-1.117293 0,-0.788399 0.238274,-1.170888 0.729412,-1.170888 h 0.354463 v -1.625812 -1.625813 h -0.959207 c -0.825085,0 -0.97664,-0.03257 -1.083875,-0.232944 -0.06857,-0.128119 -0.124668,-0.286829 -0.124668,-0.352689 0,-0.235977 0.384882,-0.498242 0.731185,-0.498242 h 0.35269 v -1.934807 c 0,-1.103406 0.05357,-2.0349035 0.124668,-2.1677496 0.168179,-0.3142455 0.786791,-0.3142455 0.95497,0 0.06857,0.1281191 0.124668,0.8597346 0.124668,1.6258126 v 1.392869 h 0.352689 c 0.741868,0 0.731186,-0.07138 0.731186,4.88604 0,4.346971 -0.0086,4.516125 -0.240861,4.748405 -0.132474,0.132474 -0.376346,0.240862 -0.541938,0.240862 -0.240861,0 -0.301076,0.06021 -0.301076,0.301076 0,0.386494 -0.396304,0.782799 -0.782799,0.782799 -0.276544,0 -0.301076,0.04416 -0.301076,0.541937 v 0.541938 h 0.458592 c 0.441437,0 0.462836,-0.01915 0.572045,-0.51183 0.105694,-0.476827 0.143356,-0.514328 0.550701,-0.548351 0.406305,-0.03394 0.442549,-0.06967 0.512149,-0.504919 0.04119,-0.257619 0.129255,-0.501992 0.195691,-0.543052 0.06643,-0.04106 0.484544,-0.07465 0.92913,-0.07465 0.896396,0 1.117193,0.149482 1.117193,0.756357 v 0.333977 l 0.910094,-0.0048 c 0.536706,-0.0028 0.981391,0.05442 1.083875,0.139474 0.134293,0.111454 0.173781,0.48294 0.173781,1.634862 v 1.490641 h 0.397421 c 0.502538,0 0.686454,0.183917 0.686454,0.686454 v 0.397421 h 0.939359 c 0.99111,0 1.228392,0.104683 1.228392,0.541938 0,0.361258 -0.22886,0.541938 -0.686454,0.541938 h -0.397421 v 1.083875 1.083875 h 0.541937 c 0.518928,0 0.541938,-0.01497 0.541938,-0.35269 0,-0.588891 0.576862,-0.949165 0.939358,-0.586669 0.209866,0.209866 0.189964,1.715163 -0.02504,1.893598 -0.09325,0.07739 -0.567449,0.151771 -1.053767,0.165283 l -0.884215,0.02457 -0.0308,0.782799 c -0.01694,0.430539 -0.057,0.898259 -0.08901,1.039377 -0.07681,0.338584 -0.482999,0.434173 -0.781367,0.183877 z M 20.216475,30.840544 V 30.298607 H 19.674538 19.1326 v 0.541937 0.541938 h 0.541938 0.541937 z m -4.358684,-5.449483 0.03703,-0.51183 h -0.548863 -0.548862 v 0.548862 0.548863 l 0.51183,-0.03703 c 0.509342,-0.03685 0.512009,-0.03952 0.548862,-0.548862 z m 2.167751,0 0.03703,-0.51183 H 17.51371 16.964848 v 0.548862 0.548863 l 0.51183,-0.03703 c 0.509341,-0.03685 0.512009,-0.03952 0.548862,-0.548862 z m -6.600499,-2.137643 v -0.541937 h -0.541938 -0.541938 v 0.46165 c 0,0.573261 0.04896,0.622225 0.622225,0.622225 h 0.461651 z m 3.452344,9.132652 c -0.04416,-0.04416 -0.08029,-0.222997 -0.08029,-0.397421 0,-0.597511 0.507627,-0.802443 0.903673,-0.364817 0.316032,0.349212 0.08224,0.842525 -0.399296,0.842525 -0.189092,0 -0.379932,-0.03613 -0.424089,-0.08029 z m 18.610539,-4.39973 c -0.07948,-0.07948 -0.144517,-0.258324 -0.144517,-0.397421 0,-0.42094 0.241997,-0.541938 1.083875,-0.541938 0.841879,0 1.083876,0.120998 1.083876,0.541938 0,0.42094 -0.241997,0.541937 -1.083876,0.541937 -0.457636,0 -0.856152,-0.06131 -0.939358,-0.144516 z M 3.9726002,26.88351 c -0.150688,-0.181568 -0.212811,-3.605123 -0.07188,-3.961276 0.09662,-0.244167 0.65633,-0.286461 0.876555,-0.06624 0.09975,0.09975 0.144516,0.712643 0.144516,1.978502 0,1.506686 -0.03377,1.867761 -0.189248,2.023234 -0.23259,0.23259 -0.578563,0.244326 -0.759943,0.02578 z m 5.47394,-0.02578 c -0.221921,-0.221921 -0.233953,-0.345206 -0.06458,-0.661683 0.104395,-0.195063 0.257153,-0.232944 0.9393588,-0.232944 0.862333,0 1.103724,0.118525 1.103724,0.541938 0,0.415047 -0.243308,0.541937 -1.039144,0.541937 -0.5213448,0 -0.8078268,-0.05772 -0.9393588,-0.189248 z m 10.9144518,0.04473 c -0.07948,-0.07948 -0.144517,-0.258324 -0.144517,-0.397421 0,-0.468071 0.221602,-0.541938 1.625813,-0.541938 1.404211,0 1.625813,0.07387 1.625813,0.541938 0,0.46807 -0.221602,0.541937 -1.625813,0.541937 -0.879143,0 -1.386253,-0.04947 -1.481296,-0.144516 z m 12.043059,0 c -0.363018,-0.363018 -0.0409,-0.994103 0.468815,-0.918496 0.390108,0.05787 0.548491,0.374637 0.376287,0.752583 -0.153035,0.335875 -0.58946,0.421555 -0.845102,0.165913 z M 7.3002952,25.833029 c -0.241927,-0.14091 -0.2792,-0.596318 -0.06624,-0.809281 0.337808,-0.337808 0.939359,-0.08331 0.939359,0.39742 0,0.476184 -0.421403,0.674963 -0.873122,0.411861 z m 27.3377428,0 c -0.241927,-0.14091 -0.2792,-0.596318 -0.06624,-0.809281 0.337808,-0.337808 0.939359,-0.08331 0.939359,0.39742 0,0.476184 -0.421403,0.674963 -0.873122,0.411861 z M 6.2164202,24.749154 c -0.428692,-0.24969 -0.184207,-0.953798 0.331184,-0.953798 0.529019,0 0.76022,0.717718 0.308994,0.959208 -0.284616,0.152321 -0.370618,0.151594 -0.640178,-0.0054 z M 19.343354,23.665279 c -0.428692,-0.24969 -0.184207,-0.953798 0.331184,-0.953798 0.507151,0 0.71644,0.530877 0.352689,0.894627 -0.217721,0.217721 -0.386576,0.232331 -0.683873,0.05917 z m 10.941761,-0.0264 c -0.142369,-0.104104 -0.200459,-0.275417 -0.173556,-0.51183 0.03588,-0.315261 0.09479,-0.362147 0.522162,-0.415568 0.469629,-0.0587 0.482652,-0.07306 0.518755,-0.572046 0.03484,-0.481488 0.0183,-0.51183 -0.278886,-0.51183 -0.51002,0 -0.781807,-0.209332 -0.781807,-0.602152 0,-0.442881 0.277507,-0.602153 1.049161,-0.602153 0.733936,0 1.11859,0.250825 1.11859,0.729412 0,0.288572 0.05098,0.354463 0.274279,0.354463 0.371974,0 0.809596,0.324531 0.809596,0.60038 0,0.331884 -0.329367,0.603926 -0.731186,0.603926 -0.309679,0 -0.352689,0.04301 -0.352689,0.352689 0,0.542924 -0.275359,0.731186 -1.06946,0.731186 -0.380029,0 -0.787261,-0.07042 -0.904959,-0.156477 z m 3.269048,0.0264 c -0.256772,-0.149556 -0.276039,-0.629263 -0.03336,-0.830665 0.230109,-0.190973 1.582862,-0.190973 1.812971,0 0.251801,0.208976 0.219928,0.68864 -0.05555,0.836074 -0.297286,0.159102 -1.447802,0.155492 -1.724053,-0.0054 z M 6.1949142,22.522232 c -0.137481,-0.137481 -0.189248,-0.429753 -0.189248,-1.068483 v -0.879234 l -0.479704,-0.07671 c -0.486349,-0.07777 -0.52192,-0.12613 -0.630591,-0.857305 -0.02705,-0.18198 -0.143429,-0.249848 -0.47608,-0.277623 -0.277174,-0.02314 -0.470143,-0.112372 -0.520887,-0.240861 -0.139037,-0.352052 -0.07037,-4.864304 0.07672,-5.041538 0.09027,-0.108775 0.438607,-0.16043 1.081844,-0.16043 h 0.948698 v -0.397421 c 0,-0.625154 0.145186,-0.686454 1.625813,-0.686454 1.404211,0 1.625813,0.07387 1.625813,0.541937 0,0.437255 -0.237282,0.541938 -1.228392,0.541938 h -0.939358 v 0.397421 c 0,0.590278 -0.172105,0.686454 -1.228392,0.686454 h -0.939359 v 0.541938 0.541937 h 1.083875 1.083876 v -0.397421 c 0,-0.457594 0.180679,-0.686454 0.541937,-0.686454 0.422114,0 0.541938,0.241714 0.541938,1.093216 0,0.879892 -0.09056,1.02947 -0.662368,1.093985 -0.331331,0.03738 -0.364363,0.08321 -0.398324,0.552594 -0.03484,0.481489 -0.0183,0.51183 0.278886,0.51183 0.468794,0 0.781806,0.212769 0.781806,0.531429 0,0.350568 -0.195309,0.519201 -0.662368,0.571897 -0.329154,0.03714 -0.364515,0.08484 -0.397524,0.536223 -0.03596,0.491791 -0.03272,0.496021 0.438469,0.571366 0.897496,0.143516 0.8013,1.161141 -0.109763,1.161141 -0.309678,0 -0.352689,0.04301 -0.352689,0.35269 0,0.371531 -0.266568,0.731186 -0.541938,0.731186 -0.08989,0 -0.248603,-0.08516 -0.35269,-0.189248 z m -0.212431,-4.778513 c -0.036852,-0.509341 -0.03952,-0.512009 -0.548862,-0.548862 l -0.51183,-0.03703 v 0.548862 0.548862 h 0.548862 0.548862 z m 11.1756988,4.811285 c -0.14237,-0.104104 -0.200459,-0.275418 -0.173556,-0.51183 0.03522,-0.309491 0.106496,-0.369995 0.552269,-0.468806 0.474782,-0.105241 0.51183,-0.141983 0.51183,-0.507593 0,-0.519861 0.252968,-0.643475 1.316819,-0.643475 h 0.850931 v -0.35269 c 0,-0.614289 0.512076,-0.924489 0.894627,-0.541937 0.213876,0.213875 0.265749,1.550592 0.07206,1.856948 -0.08089,0.127939 -0.391786,0.192159 -1.082031,0.223504 l -0.968532,0.04398 v 0.339938 c 0,0.530113 -0.280335,0.718434 -1.06946,0.718434 -0.380029,0 -0.78726,-0.07042 -0.904958,-0.156477 z m 12.06048,0.0264 c -0.29657,-0.172736 -0.277105,-0.789383 0.03011,-0.953799 0.523912,-0.280388 1.054398,0.409827 0.654559,0.851645 -0.235383,0.260095 -0.377176,0.281251 -0.684666,0.102154 z M 4.0486692,21.497528 c -0.301143,-0.1754 -0.276665,-0.789618 0.03818,-0.95812 0.193645,-0.103635 0.314017,-0.09059 0.541938,0.05875 0.365405,0.239422 0.376145,0.596257 0.02534,0.841969 -0.311268,0.21802 -0.327113,0.219522 -0.605464,0.0574 z m 12.0430588,0 c -0.301143,-0.1754 -0.276665,-0.789618 0.03818,-0.95812 0.193644,-0.103635 0.314016,-0.09059 0.541937,0.05875 0.365405,0.239422 0.376146,0.596257 0.02534,0.841969 -0.311267,0.21802 -0.327112,0.219522 -0.605463,0.0574 z m 8.727907,-0.0574 c -0.350804,-0.245712 -0.340063,-0.602547 0.02534,-0.841969 0.227921,-0.149339 0.348294,-0.162389 0.541937,-0.05875 0.329395,0.176286 0.339587,0.790347 0.01599,0.96353 -0.292825,0.156715 -0.265691,0.159637 -0.583273,-0.06281 z m -14.21081,-1.083875 c -0.332361,-0.232796 -0.342355,-0.55061 -0.02631,-0.836629 0.199422,-0.180473 0.29357,-0.194625 0.541937,-0.08146 0.380972,0.173582 0.423512,0.790442 0.06764,0.980897 -0.292825,0.156715 -0.26569,0.159637 -0.583274,-0.06281 z m 18.609837,0.0574 c -0.301143,-0.1754 -0.276666,-0.789618 0.03818,-0.95812 0.193644,-0.103635 0.314017,-0.09059 0.541938,0.05875 0.356018,0.233273 0.371611,0.46911 0.05214,0.788582 -0.272186,0.272186 -0.335964,0.283361 -0.63226,0.110784 z M 25.238393,19.361902 C 24.64426,19.312912 24.38878,18.876353 24.732179,18.4969 c 0.180801,-0.199783 0.370767,-0.241351 1.102984,-0.241351 h 0.884564 v -1.625812 -1.625813 h -1.507964 c -1.470196,0 -1.511226,-0.0072 -1.638203,-0.285843 -0.09454,-0.207491 -0.09267,-0.356041 0.0068,-0.541937 0.128525,-0.240146 0.230551,-0.256095 1.638205,-0.256095 h 1.501146 v -0.35269 c 0,-0.636629 0.226387,-0.731185 1.750608,-0.731185 1.498247,0 1.621448,0.05888 1.621448,0.774881 0,0.261365 0.05437,0.308994 0.35269,0.308994 0.346304,0 0.731186,0.262265 0.731186,0.498242 0,0.348752 -0.269634,0.585633 -0.666605,0.585633 -0.367653,0 -0.417271,0.03674 -0.417271,0.308993 0,0.533745 -0.207441,0.774882 -0.666605,0.774882 -0.367653,0 -0.41727,0.03674 -0.41727,0.308994 0,0.533744 -0.207442,0.774881 -0.666605,0.774881 -0.414256,0 -0.41727,0.0039 -0.41727,0.541938 0,0.520933 0.01389,0.541937 0.358516,0.541937 0.246887,0 0.41829,0.09123 0.550496,0.293001 0.273521,0.417446 0.05861,0.788645 -0.461634,0.79736 -0.21294,0.0036 -0.902004,0.01712 -1.531253,0.03011 -0.62925,0.01299 -1.350044,0.0066 -1.601765,-0.01412 z m 5.395328,-0.02248 c -0.427372,-0.05342 -0.486286,-0.100308 -0.522162,-0.415569 -0.04797,-0.421556 0.222572,-0.668307 0.73275,-0.668307 0.331637,0 0.343744,-0.02011 0.308167,-0.51183 -0.03396,-0.469385 -0.06699,-0.51521 -0.398324,-0.552594 -0.459819,-0.05188 -0.662369,-0.220695 -0.662369,-0.552048 0,-0.370324 0.225326,-0.551278 0.686455,-0.551278 0.369321,0 0.397421,-0.0281 0.397421,-0.397421 0,-0.439047 0.179199,-0.686454 0.497206,-0.686454 0.432073,0 0.586669,0.335487 0.586669,1.273123 v 0.894627 h 0.541937 c 0.539699,0 0.541938,-0.0017 0.541938,-0.424089 0,-0.329465 0.06378,-0.453148 0.285843,-0.554327 0.446842,-0.203595 0.798032,0.04335 0.798032,0.561146 0,0.367653 0.03674,0.41727 0.308994,0.41727 0.647472,0 0.774882,0.176489 0.774882,1.073367 0,1.009853 -0.105258,1.11847 -1.083876,1.11847 -0.838239,0 -1.055169,-0.130375 -1.107022,-0.665315 -0.0346,-0.356935 -0.07119,-0.3849 -0.548898,-0.419464 -0.510006,-0.0369 -0.51183,-0.03556 -0.51183,0.376654 0,0.227527 -0.06774,0.468092 -0.150538,0.53459 -0.195799,0.157256 -0.868029,0.225355 -1.475275,0.149449 z M 15.939376,19.21606 c -0.142439,-0.230472 -0.08408,-2.771561 0.06785,-2.954634 0.207218,-0.249681 1.598679,-0.237946 1.852247,0.01562 0.412394,0.412393 0.144383,0.894627 -0.497206,0.894627 h -0.397421 v 0.850931 c 0,1.035158 -0.128184,1.31682 -0.599283,1.31682 -0.192471,0 -0.384257,-0.05551 -0.426191,-0.123365 z m 3.339057,-0.02717 c -0.06849,-0.0828 -0.142864,-0.313119 -0.165284,-0.51183 -0.03393,-0.300727 -0.101329,-0.368125 -0.402056,-0.402056 -0.46706,-0.0527 -0.662368,-0.22133 -0.662368,-0.571897 0,-0.376632 0.328443,-0.531429 1.127571,-0.531429 0.886488,0 1.040179,0.166757 1.040179,1.128607 0,0.422845 -0.06305,0.813162 -0.144516,0.894627 -0.188586,0.188586 -0.635357,0.185196 -0.793526,-0.006 z m 3.25031,0.006 c -0.220198,-0.220198 -0.186476,-1.602778 0.04473,-1.833986 0.228912,-0.228912 0.419117,-0.239105 0.695165,-0.03725 0.219226,0.160303 0.307514,1.244732 0.143429,1.761718 -0.09103,0.28681 -0.638195,0.354652 -0.883325,0.109522 z M 8.8964842,18.275818 c -0.7003,-0.06645 -0.95159,-0.497124 -0.533819,-0.914896 0.239873,-0.239873 2.6852318,-0.277361 2.9178608,-0.04473 0.190146,0.190147 0.185919,0.810692 -0.006,0.883921 -0.196174,0.07484 -1.8366698,0.12707 -2.3780198,0.07571 z M 29.088196,18.175262 c -0.04416,-0.04416 -0.08029,-0.222997 -0.08029,-0.397421 0,-0.59751 0.507627,-0.802442 0.903673,-0.364817 0.316032,0.349213 0.08224,0.842525 -0.399296,0.842525 -0.189092,0 -0.379932,-0.03613 -0.424089,-0.08029 z m -4.418224,-1.248998 c -0.181994,-0.340058 -0.03832,-0.703217 0.313103,-0.791417 0.382068,-0.0959 0.652777,0.135082 0.652777,0.556967 0,0.511501 -0.723605,0.687144 -0.96588,0.23445 z M 9.3819602,15.854855 c -0.306341,-0.572403 0.02227,-0.850931 1.0039388,-0.850931 0.795836,0 1.039144,0.12689 1.039144,0.541938 0,0.423412 -0.241391,0.541937 -1.103724,0.541937 -0.6822058,0 -0.8349648,-0.03788 -0.9393588,-0.232944 z m 8.8125978,0.08241 c -0.06849,-0.0828 -0.142865,-0.31312 -0.165284,-0.51183 -0.03393,-0.300727 -0.101329,-0.368125 -0.402056,-0.402056 -0.571805,-0.06452 -0.662368,-0.214093 -0.662368,-1.093986 0,-0.861577 0.119034,-1.093215 0.561787,-1.093215 0.30842,0 0.522088,0.317124 0.522088,0.774881 0,0.269282 0.05108,0.308994 0.397421,0.308994 0.571779,0 0.686454,0.181065 0.686454,1.083875 0,0.457636 -0.06131,0.856152 -0.144517,0.939358 -0.188585,0.188586 -0.635356,0.185196 -0.793525,-0.006 z m 2.166434,0.006 c -0.07948,-0.07948 -0.144517,-0.258323 -0.144517,-0.39742 0,-0.139098 0.06503,-0.317937 0.144517,-0.397421 0.07948,-0.07949 0.258324,-0.144517 0.397421,-0.144517 0.139097,0 0.317937,0.06503 0.397421,0.144517 0.07948,0.07948 0.144517,0.258323 0.144517,0.397421 0,0.139097 -0.06503,0.317936 -0.144517,0.39742 -0.07948,0.07949 -0.258324,0.144517 -0.397421,0.144517 -0.139097,0 -0.317937,-0.06503 -0.397421,-0.144517 z m 2.144963,-0.03456 c -0.377526,-0.454891 0.328174,-1.160591 0.783065,-0.783065 0.215651,0.178974 0.234209,0.617984 0.03456,0.817629 -0.199645,0.199645 -0.638655,0.181087 -0.817629,-0.03456 z m 12.065846,-1.049311 c -0.07948,-0.07948 -0.144517,-0.323356 -0.144517,-0.541937 v -0.397421 h -0.939358 c -0.99111,0 -1.228392,-0.104683 -1.228392,-0.541938 0,-0.46807 0.221602,-0.541937 1.625813,-0.541937 0.879143,0 1.386253,0.04947 1.481296,0.144516 0.190344,0.190345 0.190344,1.688373 0,1.878717 -0.07948,0.07948 -0.258324,0.144517 -0.397421,0.144517 -0.139097,0 -0.317937,-0.06503 -0.397421,-0.144517 z M 10.530416,13.730801 c -0.221921,-0.221921 -0.233954,-0.345206 -0.06458,-0.661683 0.241489,-0.451227 0.959208,-0.220025 0.959208,0.308993 0,0.507152 -0.530877,0.71644 -0.894628,0.35269 z m 10.914451,0.04473 c -0.07948,-0.07948 -0.144516,-0.258323 -0.144516,-0.397421 0,-0.139097 0.06503,-0.317936 0.144516,-0.397421 0.07948,-0.07948 0.258324,-0.144516 0.397421,-0.144516 0.139098,0 0.317937,0.06503 0.397421,0.144516 0.07948,0.07949 0.144517,0.258324 0.144517,0.397421 0,0.139098 -0.06503,0.317937 -0.144517,0.397421 -0.07948,0.07948 -0.258323,0.144517 -0.397421,0.144517 -0.139097,0 -0.317936,-0.06503 -0.397421,-0.144517 z m -3.251625,-1.083875 c -0.07949,-0.07948 -0.144517,-0.258324 -0.144517,-0.397421 0,-0.139097 0.06503,-0.317937 0.144517,-0.397421 0.320034,-0.320034 0.939358,-0.0875 0.939358,0.35269 0,0.460468 -0.626263,0.755247 -0.939358,0.442152 z m 2.16775,0 c -0.07948,-0.07948 -0.144517,-0.258324 -0.144517,-0.397421 0,-0.139097 0.06503,-0.317937 0.144517,-0.397421 0.07948,-0.07948 0.258324,-0.144516 0.397421,-0.144516 0.139097,0 0.317937,0.06503 0.397421,0.144516 0.07948,0.07948 0.144517,0.258324 0.144517,0.397421 0,0.139097 -0.06503,0.317937 -0.144517,0.397421 -0.07948,0.07948 -0.258324,0.144517 -0.397421,0.144517 -0.139097,0 -0.317937,-0.06503 -0.397421,-0.144517 z m 2.212482,-0.04473 c -0.412394,-0.412394 -0.144383,-0.894627 0.497206,-0.894627 0.346344,0 0.397421,-0.03971 0.397421,-0.308994 0,-0.675947 0.589332,-1.045014 0.958465,-0.600236 0.18536,0.223344 0.182693,1.598327 -0.0035,1.822717 -0.204663,0.246603 -1.598306,0.232392 -1.849558,-0.01886 z m 3.251626,0 C 25.67421,12.496035 25.635852,12.166507 25.635852,11.021113 V 9.5845485 h -0.342627 c -0.487935,0 -0.819896,-0.3939647 -0.648651,-0.7698064 0.14007,-0.3074171 0.604974,-0.411107 1.508986,-0.3365562 0.617089,0.050889 0.686598,0.2767997 0.686598,2.2314961 0,1.245226 -0.04076,1.64937 -0.187475,1.858834 -0.219422,0.313269 -0.560416,0.345576 -0.827583,0.07841 z M 5.6962372,11.645407 C 5.1010242,11.492998 4.5786822,11.129081 4.2265802,10.621493 3.9020912,10.153712 3.8977432,10.121738 3.8659562,7.9694946 3.8352512,5.8904809 3.8463352,5.7691472 4.1086512,5.3128244 c 0.310277,-0.5397539 0.877397,-0.9667908 1.521557,-1.1457209 0.574065,-0.1594595 3.442079,-0.1556724 4.021775,0.00531 0.5920018,0.1644002 1.2726358,0.769527 1.5484588,1.3766774 0.181834,0.4002594 0.219763,0.8055477 0.221956,2.3716967 0.0015,1.0459572 -0.0544,2.040239 -0.125172,2.2279654 -0.0703,0.186463 -0.300623,0.519777 -0.51183,0.740698 -0.693125,0.725003 -0.9248238,0.790378 -2.9130558,0.821934 -0.993552,0.01577 -1.972798,-0.01392 -2.176103,-0.06598 z m 3.767826,-1.178098 c 0.7526738,-0.357167 0.8762038,-0.7193238 0.8762038,-2.5687885 0,-1.8550425 -0.148137,-2.2818971 -0.9010978,-2.5965044 -0.570118,-0.2382105 -3.045261,-0.2382105 -3.61538,0 -0.76038,0.3177073 -0.901035,0.7343585 -0.901548,2.6705862 -4.09e-4,1.5611446 0.02083,1.7269521 0.260305,2.0313907 0.421092,0.535332 0.860274,0.654529 2.430733,0.659716 1.091015,0.0036 1.526746,-0.04263 1.850784,-0.1964 z M 6.2465282,9.2232568 C 6.0460472,9.0227766 6.0056662,8.8218216 6.0056662,8.0246177 c 0,-1.1311023 0.144696,-1.5141783 0.636724,-1.6857002 0.525171,-0.1830754 1.728418,-0.1550896 2.123853,0.049398 0.409338,0.211677 0.487255,0.4639055 0.489405,1.584287 0.0013,0.6861698 -0.04808,0.9200976 -0.247958,1.174198 -0.238114,0.302713 -0.301857,0.3173176 -1.384952,0.3173176 -0.974775,0 -1.169415,-0.034065 -1.37621,-0.2408613 z M 14.914213,11.567657 C 14.705398,11.31605 14.626724,10.321423 14.783546,9.9157326 14.883622,9.6568427 14.99016,9.5845485 15.271604,9.5845485 c 0.461337,0 0.60937,0.2739181 0.60937,1.1275705 0,0.701647 -0.193974,1.04018 -0.596008,1.04018 -0.119632,0 -0.286471,-0.08309 -0.370753,-0.184642 z m 2.195153,0.04012 c -0.185764,-0.185764 -0.185764,-0.609078 0,-0.794842 0.320035,-0.320034 0.939359,-0.0875 0.939359,0.35269 0,0.460468 -0.626263,0.755247 -0.939359,0.442152 z m 2.167751,0 c -0.07948,-0.07948 -0.144517,-0.258324 -0.144517,-0.397421 0,-0.139097 0.06503,-0.317937 0.144517,-0.397421 0.34538,-0.34538 0.939358,-0.08153 0.939358,0.41727 0,0.427406 -0.634492,0.682438 -0.939358,0.377572 z m 2.212482,-0.04473 c -0.104087,-0.104086 -0.189248,-0.347958 -0.189248,-0.541937 0,-0.298325 -0.04763,-0.35269 -0.308994,-0.35269 -0.462276,0 -0.774882,-0.21439 -0.774882,-0.531428 0,-0.4497698 0.26937,-0.5709534 1.257657,-0.5657937 l 0.910094,0.00475 V 8.6236356 c 0,-0.8257418 0.03305,-0.9754664 0.248652,-1.1264806 0.249976,-0.1750901 0.660614,-0.1450187 0.785806,0.057545 0.03699,0.059855 0.06726,0.7149791 0.06726,1.4558304 0,1.4834466 -0.08033,1.6578926 -0.763443,1.6578926 -0.302406,0 -0.338274,0.04214 -0.338274,0.397421 0,0.641589 -0.482234,0.9096 -0.894627,0.497206 z m 8.301108,0.08369 C 28.94736,11.424967 28.486945,11.061114 28.095581,10.307132 27.812279,9.761334 27.700187,6.9850535 27.921522,5.9960262 c 0.191811,-0.8570995 0.90163,-1.6049821 1.718524,-1.8106783 0.721389,-0.181648 3.313281,-0.181648 4.03467,0 0.70165,0.1766774 1.480413,0.9237405 1.688333,1.6196099 0.1809,0.6054341 0.196659,3.5397353 0.02238,4.1672501 -0.151805,0.5465991 -0.580535,1.0737781 -1.169051,1.4375011 -0.400556,0.247557 -0.609944,0.275669 -2.252988,0.30248 -0.996265,0.01626 -1.973973,-0.01319 -2.172683,-0.06545 z m 3.764556,-1.218524 c 0.737207,-0.4494799 0.871088,-0.8381494 0.871384,-2.5296925 4.31e-4,-2.4669967 -0.295494,-2.7695289 -2.709051,-2.7695289 -1.601994,0 -2.064615,0.1397045 -2.520482,0.761148 -0.223635,0.3048631 -0.249421,0.5108461 -0.249421,1.992401 0,1.8362802 0.08567,2.1029078 0.819449,2.5503214 0.327279,0.199554 0.610075,0.234661 1.890239,0.234661 1.290162,0 1.561497,-0.03421 1.897882,-0.23931 z M 30.332644,9.2232568 C 30.129932,9.0205449 30.091783,8.8218216 30.091783,7.9685854 c 0,-1.2050091 0.04486,-1.349534 0.490336,-1.5799012 0.399368,-0.2065212 1.60046,-0.2324712 2.135005,-0.046127 0.488004,0.1701186 0.667216,0.7104654 0.604391,1.8223126 -0.06592,1.16663 -0.237146,1.2992485 -1.677475,1.2992485 -0.909961,0 -1.106662,-0.036128 -1.311396,-0.2408615 z M 16.091728,9.4544716 C 15.95545,9.3750971 15.880974,9.1848822 15.880974,8.9161962 V 8.5006733 h -0.903229 c -0.742655,0 -0.946049,-0.04282 -1.144091,-0.2408611 -0.286258,-0.2862588 -0.294356,-0.3625275 -0.07093,-0.6680784 0.138012,-0.188743 0.3529,-0.2407009 1.144091,-0.2766308 L 15.880976,7.270864 V 6.8663461 c 0,-0.4474173 0.246834,-0.6538536 0.781807,-0.6538536 0.29719,0 0.313723,-0.030341 0.278886,-0.51183 -0.03685,-0.5093417 -0.03952,-0.5120099 -0.548863,-0.5488621 -0.491723,-0.035577 -0.51183,-0.023471 -0.51183,0.3081663 0,0.639193 -0.238891,0.8018794 -1.252663,0.8530727 -0.871763,0.044022 -0.915087,0.059841 -0.915087,0.3341231 0,0.2886474 -0.376319,0.7696357 -0.602153,0.7696357 -0.06624,0 -0.228818,-0.1083875 -0.361292,-0.2408611 C 12.541766,6.9679215 12.50892,6.7745019 12.50892,5.7575667 c 0,-1.2608528 0.158893,-1.7128245 0.602153,-1.7128245 0.277372,0 0.602153,0.4366676 0.602153,0.8095952 0,0.2383979 0.06127,0.2742799 0.468319,0.2742799 0.439562,0 0.473159,-0.025793 0.54712,-0.4200434 0.04334,-0.2310239 0.181294,-0.4748958 0.306562,-0.5419376 0.12527,-0.067042 1.013263,-0.1218941 1.97332,-0.1218941 1.426297,0 1.780173,0.034613 1.934807,0.1892481 0.412394,0.4123934 0.144383,0.894627 -0.497206,0.894627 -0.39073,0 -0.397421,0.00912 -0.397421,0.5419376 v 0.5419376 h 0.541938 c 0.538022,0 0.541937,-0.00301 0.541937,-0.4172698 0,-0.2892871 0.07145,-0.4555072 0.232944,-0.5419376 0.576112,-0.3083261 0.850931,0.021482 0.850931,1.021196 0,0.9842791 -0.186983,1.1423171 -1.351533,1.1423171 H 18.048727 V 7.771261 c 0,0.3990066 -0.366727,0.7294123 -0.809596,0.7294123 -0.221148,0 -0.274279,0.066372 -0.274279,0.3426265 0,0.3258844 -0.313657,0.7454346 -0.551421,0.7375865 -0.06102,-0.00201 -0.205787,-0.058901 -0.321701,-0.1264147 z m 2.16775,0 c -0.428692,-0.2496902 -0.184207,-0.9537983 0.331185,-0.9537983 0.507151,0 0.71644,0.5308769 0.352689,0.8946271 -0.217722,0.2177215 -0.386576,0.2323313 -0.683874,0.059171 z m 2.146246,-1.1430463 c -0.266541,-0.2665406 -0.235065,-0.6080167 0.07613,-0.82599 0.225772,-0.1581371 0.302167,-0.1615904 0.51183,-0.023135 0.316837,0.2092304 0.373266,0.5932734 0.123823,0.8427163 -0.246377,0.2463771 -0.469808,0.2483889 -0.711788,0.00641 z M 21.54959,7.2000067 C 21.350851,7.0334387 21.299261,6.8269801 21.272736,6.0920619 l -0.0326,-0.9032293 -0.361291,-0.040764 C 20.437505,5.0982726 20.216476,4.928984 20.216476,4.640751 c 0,-0.4020345 0.338533,-0.5960089 1.04018,-0.5960089 0.886181,0 1.127571,0.1427067 1.127571,0.6666053 0,0.414255 0.0039,0.4172698 0.541938,0.4172698 0.518928,0 0.541937,-0.014974 0.541937,-0.3526895 0,-0.3636082 0.265193,-0.7311856 0.527522,-0.7311856 0.418604,0 0.571407,0.3033655 0.571407,1.1344301 0,0.4540675 -0.06,0.8855759 -0.13333,0.9589076 -0.07333,0.073332 -0.564463,0.1529087 -1.091402,0.1768384 -0.944059,0.042872 -0.958099,0.048166 -0.959916,0.3619406 -0.0034,0.5920108 -0.43052,0.8603032 -0.832792,0.5231478 z m 3.270045,0.029317 C 24.672423,7.1262124 24.551976,6.9396072 24.551976,6.8146453 c 0,-0.2773724 0.436668,-0.6021528 0.809596,-0.6021528 0.212278,0 0.27428,-0.068059 0.27428,-0.3010765 0,-0.2848411 0.368402,-0.7827987 0.579135,-0.7827987 0.05358,0 0.20261,0.076922 0.331184,0.1709379 0.190904,0.1395924 0.233771,0.3180419 0.233771,0.9731526 0,0.6551106 -0.04287,0.8335602 -0.233771,0.9731526 -0.315221,0.2304954 -1.388526,0.2202151 -1.726536,-0.016537 z"
       id="path240" /></g></svg>
